<mxfile host="app.diagrams.net" modified="2023-07-22T17:25:58.721Z" agent="Mozilla/5.0 (Macintosh; Intel Mac OS X 10_15_7) AppleWebKit/537.36 (KHTML, like Gecko) Chrome/114.0.0.0 Safari/537.36" etag="NeAy5o0uhoTUKmMMNK4O" version="21.6.1" type="device">
  <diagram name="Page-1" id="VG9tUt96xwmWf8ECsrrW">
    <mxGraphModel dx="3777" dy="1599" grid="1" gridSize="10" guides="1" tooltips="1" connect="1" arrows="1" fold="1" page="1" pageScale="1" pageWidth="850" pageHeight="1100" math="0" shadow="0">
      <root>
        <mxCell id="0" />
        <mxCell id="1" parent="0" />
        <mxCell id="zCXyR9ZO4YI8tIfsWMdl-311" style="edgeStyle=orthogonalEdgeStyle;rounded=0;orthogonalLoop=1;jettySize=auto;html=1;dashed=1;dashPattern=8 8;endArrow=open;endFill=0;" parent="1" source="zCXyR9ZO4YI8tIfsWMdl-170" target="zCXyR9ZO4YI8tIfsWMdl-262" edge="1">
          <mxGeometry relative="1" as="geometry">
            <Array as="points">
              <mxPoint x="1370" y="602" />
              <mxPoint x="1370" y="337" />
            </Array>
          </mxGeometry>
        </mxCell>
        <mxCell id="zCXyR9ZO4YI8tIfsWMdl-170" value="AircraftFactory" style="swimlane;fontStyle=1;align=center;verticalAlign=top;childLayout=stackLayout;horizontal=1;startSize=26;horizontalStack=0;resizeParent=1;resizeParentMax=0;resizeLast=0;collapsible=1;marginBottom=0;whiteSpace=wrap;html=1;rounded=1;fillColor=#d5e8d4;strokeColor=#82b366;movable=1;resizable=1;rotatable=1;deletable=1;editable=1;locked=0;connectable=1;" parent="1" vertex="1">
          <mxGeometry x="1560" y="520" width="460" height="164" as="geometry" />
        </mxCell>
        <mxCell id="zCXyR9ZO4YI8tIfsWMdl-174" value="- permittedAircraftTypes : ArrayList&amp;lt;String&amp;gt;" style="text;strokeColor=none;fillColor=none;align=left;verticalAlign=top;spacingLeft=4;spacingRight=4;overflow=hidden;rotatable=0;points=[[0,0.5],[1,0.5]];portConstraint=eastwest;whiteSpace=wrap;html=1;" parent="zCXyR9ZO4YI8tIfsWMdl-170" vertex="1">
          <mxGeometry y="26" width="460" height="26" as="geometry" />
        </mxCell>
        <mxCell id="zCXyR9ZO4YI8tIfsWMdl-175" value="" style="line;strokeWidth=1;fillColor=none;align=left;verticalAlign=middle;spacingTop=-1;spacingLeft=3;spacingRight=3;rotatable=0;labelPosition=right;points=[];portConstraint=eastwest;strokeColor=inherit;" parent="zCXyR9ZO4YI8tIfsWMdl-170" vertex="1">
          <mxGeometry y="52" width="460" height="8" as="geometry" />
        </mxCell>
        <mxCell id="zCXyR9ZO4YI8tIfsWMdl-181" value="+ AircraftFactory()" style="text;strokeColor=none;fillColor=none;align=left;verticalAlign=top;spacingLeft=4;spacingRight=4;overflow=hidden;rotatable=0;points=[[0,0.5],[1,0.5]];portConstraint=eastwest;whiteSpace=wrap;html=1;" parent="zCXyR9ZO4YI8tIfsWMdl-170" vertex="1">
          <mxGeometry y="60" width="460" height="26" as="geometry" />
        </mxCell>
        <mxCell id="zCXyR9ZO4YI8tIfsWMdl-208" value="+ newAircraft(type : String, name : String, longitude : int, latitude : int, height : int)" style="text;strokeColor=none;fillColor=none;align=left;verticalAlign=top;spacingLeft=4;spacingRight=4;overflow=hidden;rotatable=0;points=[[0,0.5],[1,0.5]];portConstraint=eastwest;whiteSpace=wrap;html=1;" parent="zCXyR9ZO4YI8tIfsWMdl-170" vertex="1">
          <mxGeometry y="86" width="460" height="26" as="geometry" />
        </mxCell>
        <mxCell id="zCXyR9ZO4YI8tIfsWMdl-182" value="- isValidAircraftType(type : String) : Boolean" style="text;strokeColor=none;fillColor=none;align=left;verticalAlign=top;spacingLeft=4;spacingRight=4;overflow=hidden;rotatable=0;points=[[0,0.5],[1,0.5]];portConstraint=eastwest;whiteSpace=wrap;html=1;" parent="zCXyR9ZO4YI8tIfsWMdl-170" vertex="1">
          <mxGeometry y="112" width="460" height="26" as="geometry" />
        </mxCell>
        <mxCell id="zCXyR9ZO4YI8tIfsWMdl-199" value="- initPermittedAircraftTypes() : void" style="text;strokeColor=none;fillColor=none;align=left;verticalAlign=top;spacingLeft=4;spacingRight=4;overflow=hidden;rotatable=0;points=[[0,0.5],[1,0.5]];portConstraint=eastwest;whiteSpace=wrap;html=1;" parent="zCXyR9ZO4YI8tIfsWMdl-170" vertex="1">
          <mxGeometry y="138" width="460" height="26" as="geometry" />
        </mxCell>
        <mxCell id="zCXyR9ZO4YI8tIfsWMdl-310" style="edgeStyle=orthogonalEdgeStyle;rounded=0;orthogonalLoop=1;jettySize=auto;html=1;dashed=1;dashPattern=12 12;endArrow=open;endFill=0;exitX=0;exitY=0.5;exitDx=0;exitDy=0;" parent="1" source="zCXyR9ZO4YI8tIfsWMdl-313" target="zCXyR9ZO4YI8tIfsWMdl-303" edge="1">
          <mxGeometry relative="1" as="geometry">
            <Array as="points">
              <mxPoint x="870" y="345" />
              <mxPoint x="870" y="558" />
            </Array>
          </mxGeometry>
        </mxCell>
        <mxCell id="zCXyR9ZO4YI8tIfsWMdl-262" value="Simulator" style="swimlane;fontStyle=1;align=center;verticalAlign=top;childLayout=stackLayout;horizontal=1;startSize=26;horizontalStack=0;resizeParent=1;resizeParentMax=0;resizeLast=0;collapsible=1;marginBottom=0;whiteSpace=wrap;html=1;rounded=1;fillColor=#d5e8d4;strokeColor=#82b366;movable=1;resizable=1;rotatable=1;deletable=1;editable=1;locked=0;connectable=1;" parent="1" vertex="1">
          <mxGeometry x="896.7890566037736" y="243.46" width="346.4150943396226" height="216.3571428571429" as="geometry" />
        </mxCell>
        <mxCell id="zCXyR9ZO4YI8tIfsWMdl-263" value="&lt;u&gt;- metaData : SimulationMetaData&lt;/u&gt;" style="text;strokeColor=none;fillColor=none;align=left;verticalAlign=top;spacingLeft=4;spacingRight=4;overflow=hidden;rotatable=0;points=[[0,0.5],[1,0.5]];portConstraint=eastwest;whiteSpace=wrap;html=1;" parent="zCXyR9ZO4YI8tIfsWMdl-262" vertex="1">
          <mxGeometry y="26" width="346.4150943396226" height="30.17857142857143" as="geometry" />
        </mxCell>
        <mxCell id="zCXyR9ZO4YI8tIfsWMdl-264" value="- parser : ParserInterface" style="text;strokeColor=none;fillColor=none;align=left;verticalAlign=top;spacingLeft=4;spacingRight=4;overflow=hidden;rotatable=0;points=[[0,0.5],[1,0.5]];portConstraint=eastwest;whiteSpace=wrap;html=1;" parent="zCXyR9ZO4YI8tIfsWMdl-262" vertex="1">
          <mxGeometry y="56.17857142857143" width="346.4150943396226" height="30.17857142857143" as="geometry" />
        </mxCell>
        <mxCell id="zCXyR9ZO4YI8tIfsWMdl-313" value="- parsedData : ParsedData" style="text;strokeColor=none;fillColor=none;align=left;verticalAlign=top;spacingLeft=4;spacingRight=4;overflow=hidden;rotatable=0;points=[[0,0.5],[1,0.5]];portConstraint=eastwest;whiteSpace=wrap;html=1;" parent="zCXyR9ZO4YI8tIfsWMdl-262" vertex="1">
          <mxGeometry y="86.35714285714286" width="346.4150943396226" height="30.17857142857143" as="geometry" />
        </mxCell>
        <mxCell id="zCXyR9ZO4YI8tIfsWMdl-265" value="" style="line;strokeWidth=1;fillColor=none;align=left;verticalAlign=middle;spacingTop=-1;spacingLeft=3;spacingRight=3;rotatable=0;labelPosition=right;points=[];portConstraint=eastwest;strokeColor=inherit;" parent="zCXyR9ZO4YI8tIfsWMdl-262" vertex="1">
          <mxGeometry y="116.53571428571429" width="346.4150943396226" height="9.285714285714286" as="geometry" />
        </mxCell>
        <mxCell id="zCXyR9ZO4YI8tIfsWMdl-266" value="+ Simulator(filepath : String)" style="text;strokeColor=none;fillColor=none;align=left;verticalAlign=top;spacingLeft=4;spacingRight=4;overflow=hidden;rotatable=0;points=[[0,0.5],[1,0.5]];portConstraint=eastwest;whiteSpace=wrap;html=1;" parent="zCXyR9ZO4YI8tIfsWMdl-262" vertex="1">
          <mxGeometry y="125.82142857142858" width="346.4150943396226" height="30.17857142857143" as="geometry" />
        </mxCell>
        <mxCell id="zCXyR9ZO4YI8tIfsWMdl-267" value="+ run() : void" style="text;strokeColor=none;fillColor=none;align=left;verticalAlign=top;spacingLeft=4;spacingRight=4;overflow=hidden;rotatable=0;points=[[0,0.5],[1,0.5]];portConstraint=eastwest;whiteSpace=wrap;html=1;" parent="zCXyR9ZO4YI8tIfsWMdl-262" vertex="1">
          <mxGeometry y="156" width="346.4150943396226" height="30.17857142857143" as="geometry" />
        </mxCell>
        <mxCell id="zCXyR9ZO4YI8tIfsWMdl-268" value="- isNeededToDetach(aircraft : Flyable) : Boolean" style="text;strokeColor=none;fillColor=none;align=left;verticalAlign=top;spacingLeft=4;spacingRight=4;overflow=hidden;rotatable=0;points=[[0,0.5],[1,0.5]];portConstraint=eastwest;whiteSpace=wrap;html=1;" parent="zCXyR9ZO4YI8tIfsWMdl-262" vertex="1">
          <mxGeometry y="186.17857142857144" width="346.4150943396226" height="30.17857142857143" as="geometry" />
        </mxCell>
        <mxCell id="zCXyR9ZO4YI8tIfsWMdl-297" value="" style="group" parent="1" vertex="1" connectable="0">
          <mxGeometry x="1460" y="50" width="1210" height="380" as="geometry" />
        </mxCell>
        <mxCell id="zCXyR9ZO4YI8tIfsWMdl-269" value="Parser" style="swimlane;fontStyle=1;align=center;verticalAlign=top;childLayout=stackLayout;horizontal=1;startSize=26;horizontalStack=0;resizeParent=1;resizeParentMax=0;resizeLast=0;collapsible=1;marginBottom=0;whiteSpace=wrap;html=1;rounded=1;fillColor=#d5e8d4;strokeColor=#82b366;movable=1;resizable=1;rotatable=1;deletable=1;editable=1;locked=0;connectable=1;" parent="zCXyR9ZO4YI8tIfsWMdl-297" vertex="1">
          <mxGeometry x="310" y="50" width="390" height="276.7142857142858" as="geometry" />
        </mxCell>
        <mxCell id="zCXyR9ZO4YI8tIfsWMdl-271" value="- metaData : SimulationMetaData" style="text;strokeColor=none;fillColor=none;align=left;verticalAlign=top;spacingLeft=4;spacingRight=4;overflow=hidden;rotatable=0;points=[[0,0.5],[1,0.5]];portConstraint=eastwest;whiteSpace=wrap;html=1;" parent="zCXyR9ZO4YI8tIfsWMdl-269" vertex="1">
          <mxGeometry y="26" width="390" height="30.17857142857143" as="geometry" />
        </mxCell>
        <mxCell id="zCXyR9ZO4YI8tIfsWMdl-276" value="- ParsedData : data" style="text;strokeColor=none;fillColor=none;align=left;verticalAlign=top;spacingLeft=4;spacingRight=4;overflow=hidden;rotatable=0;points=[[0,0.5],[1,0.5]];portConstraint=eastwest;whiteSpace=wrap;html=1;" parent="zCXyR9ZO4YI8tIfsWMdl-269" vertex="1">
          <mxGeometry y="56.17857142857143" width="390" height="30.17857142857143" as="geometry" />
        </mxCell>
        <mxCell id="zCXyR9ZO4YI8tIfsWMdl-272" value="" style="line;strokeWidth=1;fillColor=none;align=left;verticalAlign=middle;spacingTop=-1;spacingLeft=3;spacingRight=3;rotatable=0;labelPosition=right;points=[];portConstraint=eastwest;strokeColor=inherit;" parent="zCXyR9ZO4YI8tIfsWMdl-269" vertex="1">
          <mxGeometry y="86.35714285714286" width="390" height="9.285714285714286" as="geometry" />
        </mxCell>
        <mxCell id="zCXyR9ZO4YI8tIfsWMdl-273" value="+ Parser(filepath : String)" style="text;strokeColor=none;fillColor=none;align=left;verticalAlign=top;spacingLeft=4;spacingRight=4;overflow=hidden;rotatable=0;points=[[0,0.5],[1,0.5]];portConstraint=eastwest;whiteSpace=wrap;html=1;" parent="zCXyR9ZO4YI8tIfsWMdl-269" vertex="1">
          <mxGeometry y="95.64285714285715" width="390" height="30.17857142857143" as="geometry" />
        </mxCell>
        <mxCell id="zCXyR9ZO4YI8tIfsWMdl-274" value="+ getParsedData() : ParsedData" style="text;strokeColor=none;fillColor=none;align=left;verticalAlign=top;spacingLeft=4;spacingRight=4;overflow=hidden;rotatable=0;points=[[0,0.5],[1,0.5]];portConstraint=eastwest;whiteSpace=wrap;html=1;" parent="zCXyR9ZO4YI8tIfsWMdl-269" vertex="1">
          <mxGeometry y="125.82142857142858" width="390" height="30.17857142857143" as="geometry" />
        </mxCell>
        <mxCell id="zCXyR9ZO4YI8tIfsWMdl-275" value="- readSenarioFile(filepath : String) : ArrayList&amp;lt;String&amp;gt;" style="text;strokeColor=none;fillColor=none;align=left;verticalAlign=top;spacingLeft=4;spacingRight=4;overflow=hidden;rotatable=0;points=[[0,0.5],[1,0.5]];portConstraint=eastwest;whiteSpace=wrap;html=1;" parent="zCXyR9ZO4YI8tIfsWMdl-269" vertex="1">
          <mxGeometry y="156" width="390" height="30.17857142857143" as="geometry" />
        </mxCell>
        <mxCell id="zCXyR9ZO4YI8tIfsWMdl-277" value="- parseSimulationCount(lines : ArrayList&amp;lt;String&amp;gt;) : int" style="text;strokeColor=none;fillColor=none;align=left;verticalAlign=top;spacingLeft=4;spacingRight=4;overflow=hidden;rotatable=0;points=[[0,0.5],[1,0.5]];portConstraint=eastwest;whiteSpace=wrap;html=1;" parent="zCXyR9ZO4YI8tIfsWMdl-269" vertex="1">
          <mxGeometry y="186.17857142857144" width="390" height="30.17857142857143" as="geometry" />
        </mxCell>
        <mxCell id="zCXyR9ZO4YI8tIfsWMdl-278" value="- parseAircrafts(lines : ArrayList&amp;lt;String&amp;gt;) : ArrayList&amp;lt;Flyable&amp;gt;" style="text;strokeColor=none;fillColor=none;align=left;verticalAlign=top;spacingLeft=4;spacingRight=4;overflow=hidden;rotatable=0;points=[[0,0.5],[1,0.5]];portConstraint=eastwest;whiteSpace=wrap;html=1;" parent="zCXyR9ZO4YI8tIfsWMdl-269" vertex="1">
          <mxGeometry y="216.3571428571429" width="390" height="30.17857142857143" as="geometry" />
        </mxCell>
        <mxCell id="zCXyR9ZO4YI8tIfsWMdl-279" value="- isValidCoordinates(longitude : int, latitude : int, height : int) : Boolean" style="text;strokeColor=none;fillColor=none;align=left;verticalAlign=top;spacingLeft=4;spacingRight=4;overflow=hidden;rotatable=0;points=[[0,0.5],[1,0.5]];portConstraint=eastwest;whiteSpace=wrap;html=1;" parent="zCXyR9ZO4YI8tIfsWMdl-269" vertex="1">
          <mxGeometry y="246.53571428571433" width="390" height="30.17857142857143" as="geometry" />
        </mxCell>
        <mxCell id="zCXyR9ZO4YI8tIfsWMdl-280" value="Parser" style="shape=umlFrame;whiteSpace=wrap;html=1;pointerEvents=0;" parent="zCXyR9ZO4YI8tIfsWMdl-297" vertex="1">
          <mxGeometry x="90" width="1120" height="380" as="geometry" />
        </mxCell>
        <mxCell id="zCXyR9ZO4YI8tIfsWMdl-281" value="&lt;b&gt;&lt;i&gt;Parser&lt;/i&gt;&lt;/b&gt;" style="html=1;whiteSpace=wrap;" parent="zCXyR9ZO4YI8tIfsWMdl-297" vertex="1">
          <mxGeometry x="90" width="110" height="40" as="geometry" />
        </mxCell>
        <mxCell id="zCXyR9ZO4YI8tIfsWMdl-294" style="edgeStyle=orthogonalEdgeStyle;rounded=0;orthogonalLoop=1;jettySize=auto;html=1;endArrow=diamondThin;endFill=1;" parent="zCXyR9ZO4YI8tIfsWMdl-297" source="zCXyR9ZO4YI8tIfsWMdl-282" target="zCXyR9ZO4YI8tIfsWMdl-269" edge="1">
          <mxGeometry relative="1" as="geometry">
            <Array as="points">
              <mxPoint x="690" y="143" />
              <mxPoint x="690" y="143" />
            </Array>
          </mxGeometry>
        </mxCell>
        <mxCell id="zCXyR9ZO4YI8tIfsWMdl-282" value="ParsedData" style="swimlane;fontStyle=1;align=center;verticalAlign=top;childLayout=stackLayout;horizontal=1;startSize=26;horizontalStack=0;resizeParent=1;resizeParentMax=0;resizeLast=0;collapsible=1;marginBottom=0;whiteSpace=wrap;html=1;rounded=1;fillColor=#d5e8d4;strokeColor=#82b366;movable=1;resizable=1;rotatable=1;deletable=1;editable=1;locked=0;connectable=1;" parent="zCXyR9ZO4YI8tIfsWMdl-297" vertex="1">
          <mxGeometry x="780" y="50" width="390" height="186.17857142857144" as="geometry" />
        </mxCell>
        <mxCell id="zCXyR9ZO4YI8tIfsWMdl-283" value="- simulationCount : int" style="text;strokeColor=none;fillColor=none;align=left;verticalAlign=top;spacingLeft=4;spacingRight=4;overflow=hidden;rotatable=0;points=[[0,0.5],[1,0.5]];portConstraint=eastwest;whiteSpace=wrap;html=1;" parent="zCXyR9ZO4YI8tIfsWMdl-282" vertex="1">
          <mxGeometry y="26" width="390" height="30.17857142857143" as="geometry" />
        </mxCell>
        <mxCell id="zCXyR9ZO4YI8tIfsWMdl-284" value="- Aircrafts : ArrayList&amp;lt;Flyable&amp;gt;" style="text;strokeColor=none;fillColor=none;align=left;verticalAlign=top;spacingLeft=4;spacingRight=4;overflow=hidden;rotatable=0;points=[[0,0.5],[1,0.5]];portConstraint=eastwest;whiteSpace=wrap;html=1;" parent="zCXyR9ZO4YI8tIfsWMdl-282" vertex="1">
          <mxGeometry y="56.17857142857143" width="390" height="30.17857142857143" as="geometry" />
        </mxCell>
        <mxCell id="zCXyR9ZO4YI8tIfsWMdl-285" value="" style="line;strokeWidth=1;fillColor=none;align=left;verticalAlign=middle;spacingTop=-1;spacingLeft=3;spacingRight=3;rotatable=0;labelPosition=right;points=[];portConstraint=eastwest;strokeColor=inherit;" parent="zCXyR9ZO4YI8tIfsWMdl-282" vertex="1">
          <mxGeometry y="86.35714285714286" width="390" height="9.285714285714286" as="geometry" />
        </mxCell>
        <mxCell id="zCXyR9ZO4YI8tIfsWMdl-291" value="+ ParsedData(simulationCount : int, aircrafts : ArrayList&amp;lt;Flyable&amp;gt;)" style="text;strokeColor=none;fillColor=none;align=left;verticalAlign=top;spacingLeft=4;spacingRight=4;overflow=hidden;rotatable=0;points=[[0,0.5],[1,0.5]];portConstraint=eastwest;whiteSpace=wrap;html=1;" parent="zCXyR9ZO4YI8tIfsWMdl-282" vertex="1">
          <mxGeometry y="95.64285714285715" width="390" height="30.17857142857143" as="geometry" />
        </mxCell>
        <mxCell id="zCXyR9ZO4YI8tIfsWMdl-292" value="+ getSimulationCount() : int" style="text;strokeColor=none;fillColor=none;align=left;verticalAlign=top;spacingLeft=4;spacingRight=4;overflow=hidden;rotatable=0;points=[[0,0.5],[1,0.5]];portConstraint=eastwest;whiteSpace=wrap;html=1;" parent="zCXyR9ZO4YI8tIfsWMdl-282" vertex="1">
          <mxGeometry y="125.82142857142858" width="390" height="30.17857142857143" as="geometry" />
        </mxCell>
        <mxCell id="zCXyR9ZO4YI8tIfsWMdl-293" value="+ getAircrafts() : ArrayList&amp;lt;Flyable&amp;gt;" style="text;strokeColor=none;fillColor=none;align=left;verticalAlign=top;spacingLeft=4;spacingRight=4;overflow=hidden;rotatable=0;points=[[0,0.5],[1,0.5]];portConstraint=eastwest;whiteSpace=wrap;html=1;" parent="zCXyR9ZO4YI8tIfsWMdl-282" vertex="1">
          <mxGeometry y="156" width="390" height="30.17857142857143" as="geometry" />
        </mxCell>
        <mxCell id="zCXyR9ZO4YI8tIfsWMdl-295" value="&lt;p style=&quot;margin:0px;margin-top:4px;text-align:center;&quot;&gt;&lt;i&gt;&amp;lt;&amp;lt;Interface&amp;gt;&amp;gt;&lt;/i&gt;&lt;br&gt;&lt;b&gt;ParserInterface&lt;/b&gt;&lt;/p&gt;&lt;hr size=&quot;1&quot;&gt;&lt;p style=&quot;margin:0px;margin-left:4px;&quot;&gt;+ getParsedData() : ParsedData&lt;/p&gt;" style="verticalAlign=top;align=left;overflow=fill;fontSize=12;fontFamily=Helvetica;html=1;whiteSpace=wrap;rounded=0;fillColor=#f5f5f5;strokeColor=#666666;fontColor=#333333;movable=1;resizable=1;rotatable=1;deletable=1;editable=1;locked=0;connectable=1;" parent="zCXyR9ZO4YI8tIfsWMdl-297" vertex="1">
          <mxGeometry y="73.09" width="230" height="66.91" as="geometry" />
        </mxCell>
        <mxCell id="zCXyR9ZO4YI8tIfsWMdl-296" style="edgeStyle=orthogonalEdgeStyle;rounded=0;orthogonalLoop=1;jettySize=auto;html=1;entryX=1;entryY=0.5;entryDx=0;entryDy=0;dashed=1;dashPattern=8 8;" parent="zCXyR9ZO4YI8tIfsWMdl-297" source="zCXyR9ZO4YI8tIfsWMdl-269" target="zCXyR9ZO4YI8tIfsWMdl-295" edge="1">
          <mxGeometry relative="1" as="geometry" />
        </mxCell>
        <mxCell id="zCXyR9ZO4YI8tIfsWMdl-298" style="edgeStyle=orthogonalEdgeStyle;rounded=0;orthogonalLoop=1;jettySize=auto;html=1;endArrow=diamondThin;endFill=1;" parent="1" source="zCXyR9ZO4YI8tIfsWMdl-295" target="zCXyR9ZO4YI8tIfsWMdl-262" edge="1">
          <mxGeometry relative="1" as="geometry" />
        </mxCell>
        <mxCell id="zCXyR9ZO4YI8tIfsWMdl-301" value="frame" style="shape=umlFrame;whiteSpace=wrap;html=1;pointerEvents=0;" parent="1" vertex="1">
          <mxGeometry x="-520" y="790" width="910" height="510" as="geometry" />
        </mxCell>
        <mxCell id="zCXyR9ZO4YI8tIfsWMdl-302" value="&lt;b&gt;&lt;i&gt;WeatherTower&lt;/i&gt;&lt;/b&gt;" style="html=1;whiteSpace=wrap;" parent="1" vertex="1">
          <mxGeometry x="-520" y="790" width="110" height="50" as="geometry" />
        </mxCell>
        <mxCell id="zCXyR9ZO4YI8tIfsWMdl-303" value="Main" style="swimlane;fontStyle=1;align=center;verticalAlign=top;childLayout=stackLayout;horizontal=1;startSize=26;horizontalStack=0;resizeParent=1;resizeParentMax=0;resizeLast=0;collapsible=1;marginBottom=0;whiteSpace=wrap;html=1;rounded=1;fillColor=#d5e8d4;strokeColor=#82b366;movable=1;resizable=1;rotatable=1;deletable=1;editable=1;locked=0;connectable=1;" parent="1" vertex="1">
          <mxGeometry x="896.7890566037736" y="510" width="346.4150943396226" height="95.64285714285715" as="geometry" />
        </mxCell>
        <mxCell id="zCXyR9ZO4YI8tIfsWMdl-306" value="" style="line;strokeWidth=1;fillColor=none;align=left;verticalAlign=middle;spacingTop=-1;spacingLeft=3;spacingRight=3;rotatable=0;labelPosition=right;points=[];portConstraint=eastwest;strokeColor=inherit;" parent="zCXyR9ZO4YI8tIfsWMdl-303" vertex="1">
          <mxGeometry y="26" width="346.4150943396226" height="9.285714285714286" as="geometry" />
        </mxCell>
        <mxCell id="zCXyR9ZO4YI8tIfsWMdl-307" value="+ validateArgs(args : String[]) : Boolean" style="text;strokeColor=none;fillColor=none;align=left;verticalAlign=top;spacingLeft=4;spacingRight=4;overflow=hidden;rotatable=0;points=[[0,0.5],[1,0.5]];portConstraint=eastwest;whiteSpace=wrap;html=1;" parent="zCXyR9ZO4YI8tIfsWMdl-303" vertex="1">
          <mxGeometry y="35.285714285714285" width="346.4150943396226" height="30.17857142857143" as="geometry" />
        </mxCell>
        <mxCell id="zCXyR9ZO4YI8tIfsWMdl-309" value="+ main(args : String[]) : void" style="text;strokeColor=none;fillColor=none;align=left;verticalAlign=top;spacingLeft=4;spacingRight=4;overflow=hidden;rotatable=0;points=[[0,0.5],[1,0.5]];portConstraint=eastwest;whiteSpace=wrap;html=1;" parent="zCXyR9ZO4YI8tIfsWMdl-303" vertex="1">
          <mxGeometry y="65.46428571428572" width="346.4150943396226" height="30.17857142857143" as="geometry" />
        </mxCell>
        <mxCell id="zCXyR9ZO4YI8tIfsWMdl-354" value="" style="group;movable=1;resizable=1;rotatable=1;deletable=1;editable=1;locked=0;connectable=1;" parent="1" vertex="1" connectable="0">
          <mxGeometry x="-530" y="1480" width="910" height="500" as="geometry" />
        </mxCell>
        <mxCell id="zCXyR9ZO4YI8tIfsWMdl-299" value="frame" style="shape=umlFrame;whiteSpace=wrap;html=1;pointerEvents=0;movable=1;resizable=1;rotatable=1;deletable=1;editable=1;locked=0;connectable=1;" parent="zCXyR9ZO4YI8tIfsWMdl-354" vertex="1">
          <mxGeometry width="910" height="500" as="geometry" />
        </mxCell>
        <mxCell id="zCXyR9ZO4YI8tIfsWMdl-300" value="&lt;b&gt;&lt;i&gt;WeatherProvider&lt;/i&gt;&lt;/b&gt;" style="html=1;whiteSpace=wrap;movable=0;resizable=0;rotatable=0;deletable=0;editable=0;locked=1;connectable=0;" parent="zCXyR9ZO4YI8tIfsWMdl-354" vertex="1">
          <mxGeometry width="110" height="50" as="geometry" />
        </mxCell>
        <mxCell id="zCXyR9ZO4YI8tIfsWMdl-314" value="WeatherProvider" style="swimlane;fontStyle=1;align=center;verticalAlign=top;childLayout=stackLayout;horizontal=1;startSize=26;horizontalStack=0;resizeParent=1;resizeParentMax=0;resizeLast=0;collapsible=1;marginBottom=0;whiteSpace=wrap;html=1;rounded=1;fillColor=#d5e8d4;strokeColor=#82b366;movable=1;resizable=1;rotatable=1;deletable=1;editable=1;locked=0;connectable=1;" parent="zCXyR9ZO4YI8tIfsWMdl-354" vertex="1">
          <mxGeometry x="489.9990566037736" y="106" width="346.42" height="216.3571428571429" as="geometry" />
        </mxCell>
        <mxCell id="zCXyR9ZO4YI8tIfsWMdl-317" value="&lt;u&gt;- metaData : SimulationMetaData&lt;/u&gt;" style="text;strokeColor=none;fillColor=none;align=left;verticalAlign=top;spacingLeft=4;spacingRight=4;overflow=hidden;rotatable=1;points=[[0,0.5],[1,0.5]];portConstraint=eastwest;whiteSpace=wrap;html=1;movable=1;resizable=1;deletable=1;editable=1;locked=0;connectable=1;" parent="zCXyR9ZO4YI8tIfsWMdl-314" vertex="1">
          <mxGeometry y="26" width="346.42" height="30.17857142857143" as="geometry" />
        </mxCell>
        <mxCell id="zCXyR9ZO4YI8tIfsWMdl-322" value="- weather : String[]" style="text;strokeColor=none;fillColor=none;align=left;verticalAlign=top;spacingLeft=4;spacingRight=4;overflow=hidden;rotatable=1;points=[[0,0.5],[1,0.5]];portConstraint=eastwest;whiteSpace=wrap;html=1;movable=1;resizable=1;deletable=1;editable=1;locked=0;connectable=1;" parent="zCXyR9ZO4YI8tIfsWMdl-314" vertex="1">
          <mxGeometry y="56.17857142857143" width="346.42" height="30.17857142857143" as="geometry" />
        </mxCell>
        <mxCell id="zCXyR9ZO4YI8tIfsWMdl-323" value="- field : Field" style="text;strokeColor=none;fillColor=none;align=left;verticalAlign=top;spacingLeft=4;spacingRight=4;overflow=hidden;rotatable=1;points=[[0,0.5],[1,0.5]];portConstraint=eastwest;whiteSpace=wrap;html=1;movable=1;resizable=1;deletable=1;editable=1;locked=0;connectable=1;" parent="zCXyR9ZO4YI8tIfsWMdl-314" vertex="1">
          <mxGeometry y="86.35714285714286" width="346.42" height="30.17857142857143" as="geometry" />
        </mxCell>
        <mxCell id="zCXyR9ZO4YI8tIfsWMdl-318" value="" style="line;strokeWidth=1;fillColor=none;align=left;verticalAlign=middle;spacingTop=-1;spacingLeft=3;spacingRight=3;rotatable=1;labelPosition=right;points=[];portConstraint=eastwest;strokeColor=inherit;movable=1;resizable=1;deletable=1;editable=1;locked=0;connectable=1;" parent="zCXyR9ZO4YI8tIfsWMdl-314" vertex="1">
          <mxGeometry y="116.53571428571429" width="346.42" height="9.285714285714286" as="geometry" />
        </mxCell>
        <mxCell id="zCXyR9ZO4YI8tIfsWMdl-319" value="- WeatherProvider()" style="text;strokeColor=none;fillColor=none;align=left;verticalAlign=top;spacingLeft=4;spacingRight=4;overflow=hidden;rotatable=1;points=[[0,0.5],[1,0.5]];portConstraint=eastwest;whiteSpace=wrap;html=1;movable=1;resizable=1;deletable=1;editable=1;locked=0;connectable=1;" parent="zCXyR9ZO4YI8tIfsWMdl-314" vertex="1">
          <mxGeometry y="125.82142857142858" width="346.42" height="30.17857142857143" as="geometry" />
        </mxCell>
        <mxCell id="zCXyR9ZO4YI8tIfsWMdl-332" style="edgeStyle=orthogonalEdgeStyle;rounded=0;orthogonalLoop=1;jettySize=auto;html=1;entryX=0.5;entryY=0;entryDx=0;entryDy=0;endArrow=diamondThin;endFill=0;movable=1;resizable=1;rotatable=1;deletable=1;editable=1;locked=0;connectable=1;" parent="zCXyR9ZO4YI8tIfsWMdl-314" source="zCXyR9ZO4YI8tIfsWMdl-325" target="zCXyR9ZO4YI8tIfsWMdl-314" edge="1">
          <mxGeometry relative="1" as="geometry">
            <Array as="points">
              <mxPoint x="-20" y="171" />
              <mxPoint x="-20" y="-20" />
              <mxPoint x="173" y="-20" />
            </Array>
          </mxGeometry>
        </mxCell>
        <mxCell id="zCXyR9ZO4YI8tIfsWMdl-325" value="&lt;u&gt;+ getProvider() : WeatherProvider&lt;/u&gt;" style="text;strokeColor=none;fillColor=none;align=left;verticalAlign=top;spacingLeft=4;spacingRight=4;overflow=hidden;rotatable=1;points=[[0,0.5],[1,0.5]];portConstraint=eastwest;whiteSpace=wrap;html=1;movable=1;resizable=1;deletable=1;editable=1;locked=0;connectable=1;" parent="zCXyR9ZO4YI8tIfsWMdl-314" vertex="1">
          <mxGeometry y="156" width="346.42" height="30.17857142857143" as="geometry" />
        </mxCell>
        <mxCell id="zCXyR9ZO4YI8tIfsWMdl-321" value="- isNeededToDetach(aircraft : Flyable) : Boolean" style="text;strokeColor=none;fillColor=none;align=left;verticalAlign=top;spacingLeft=4;spacingRight=4;overflow=hidden;rotatable=1;points=[[0,0.5],[1,0.5]];portConstraint=eastwest;whiteSpace=wrap;html=1;movable=1;resizable=1;deletable=1;editable=1;locked=0;connectable=1;" parent="zCXyR9ZO4YI8tIfsWMdl-314" vertex="1">
          <mxGeometry y="186.17857142857144" width="346.42" height="30.17857142857143" as="geometry" />
        </mxCell>
        <mxCell id="zCXyR9ZO4YI8tIfsWMdl-331" style="edgeStyle=orthogonalEdgeStyle;rounded=0;orthogonalLoop=1;jettySize=auto;html=1;endArrow=circlePlus;endFill=0;movable=1;resizable=1;rotatable=1;deletable=1;editable=1;locked=0;connectable=1;" parent="zCXyR9ZO4YI8tIfsWMdl-354" source="zCXyR9ZO4YI8tIfsWMdl-327" target="zCXyR9ZO4YI8tIfsWMdl-314" edge="1">
          <mxGeometry relative="1" as="geometry" />
        </mxCell>
        <mxCell id="zCXyR9ZO4YI8tIfsWMdl-327" value="Holder" style="swimlane;fontStyle=1;align=center;verticalAlign=top;childLayout=stackLayout;horizontal=1;startSize=26;horizontalStack=0;resizeParent=1;resizeParentMax=0;resizeLast=0;collapsible=1;marginBottom=0;whiteSpace=wrap;html=1;rounded=1;fillColor=#d5e8d4;strokeColor=#82b366;movable=1;resizable=1;rotatable=1;deletable=1;editable=1;locked=0;connectable=1;" parent="zCXyR9ZO4YI8tIfsWMdl-354" vertex="1">
          <mxGeometry x="489.99905660377357" y="384.53999999999996" width="346.4150943396226" height="65.46428571428572" as="geometry" />
        </mxCell>
        <mxCell id="zCXyR9ZO4YI8tIfsWMdl-329" value="&lt;u&gt;- INSTANCE : WeatherProvider {readOnly}&lt;/u&gt;" style="text;strokeColor=none;fillColor=none;align=left;verticalAlign=top;spacingLeft=4;spacingRight=4;overflow=hidden;rotatable=1;points=[[0,0.5],[1,0.5]];portConstraint=eastwest;whiteSpace=wrap;html=1;movable=1;resizable=1;deletable=1;editable=1;locked=0;connectable=1;" parent="zCXyR9ZO4YI8tIfsWMdl-327" vertex="1">
          <mxGeometry y="26" width="346.4150943396226" height="30.17857142857143" as="geometry" />
        </mxCell>
        <mxCell id="zCXyR9ZO4YI8tIfsWMdl-328" value="" style="line;strokeWidth=1;fillColor=none;align=left;verticalAlign=middle;spacingTop=-1;spacingLeft=3;spacingRight=3;rotatable=1;labelPosition=right;points=[];portConstraint=eastwest;strokeColor=inherit;movable=1;resizable=1;deletable=1;editable=1;locked=0;connectable=1;" parent="zCXyR9ZO4YI8tIfsWMdl-327" vertex="1">
          <mxGeometry y="56.17857142857143" width="346.4150943396226" height="9.285714285714286" as="geometry" />
        </mxCell>
        <mxCell id="zCXyR9ZO4YI8tIfsWMdl-352" style="edgeStyle=orthogonalEdgeStyle;rounded=0;orthogonalLoop=1;jettySize=auto;html=1;endArrow=diamondThin;endFill=1;movable=1;resizable=1;rotatable=1;deletable=1;editable=1;locked=0;connectable=1;" parent="zCXyR9ZO4YI8tIfsWMdl-354" source="zCXyR9ZO4YI8tIfsWMdl-342" target="zCXyR9ZO4YI8tIfsWMdl-314" edge="1">
          <mxGeometry relative="1" as="geometry">
            <Array as="points">
              <mxPoint x="420" y="214" />
              <mxPoint x="420" y="214" />
            </Array>
          </mxGeometry>
        </mxCell>
        <mxCell id="zCXyR9ZO4YI8tIfsWMdl-342" value="Field" style="swimlane;fontStyle=1;align=center;verticalAlign=top;childLayout=stackLayout;horizontal=1;startSize=26;horizontalStack=0;resizeParent=1;resizeParentMax=0;resizeLast=0;collapsible=1;marginBottom=0;whiteSpace=wrap;html=1;rounded=1;fillColor=#d5e8d4;strokeColor=#82b366;movable=1;resizable=1;rotatable=1;deletable=1;editable=1;locked=0;connectable=1;" parent="zCXyR9ZO4YI8tIfsWMdl-354" vertex="1">
          <mxGeometry x="39.999056603773624" y="106" width="346.4150943396226" height="276.7142857142858" as="geometry" />
        </mxCell>
        <mxCell id="zCXyR9ZO4YI8tIfsWMdl-343" value="- height : long" style="text;strokeColor=none;fillColor=none;align=left;verticalAlign=top;spacingLeft=4;spacingRight=4;overflow=hidden;rotatable=1;points=[[0,0.5],[1,0.5]];portConstraint=eastwest;whiteSpace=wrap;html=1;movable=1;resizable=1;deletable=1;editable=1;locked=0;connectable=1;" parent="zCXyR9ZO4YI8tIfsWMdl-342" vertex="1">
          <mxGeometry y="26" width="346.4150943396226" height="30.17857142857143" as="geometry" />
        </mxCell>
        <mxCell id="zCXyR9ZO4YI8tIfsWMdl-344" value="- width : long" style="text;strokeColor=none;fillColor=none;align=left;verticalAlign=top;spacingLeft=4;spacingRight=4;overflow=hidden;rotatable=1;points=[[0,0.5],[1,0.5]];portConstraint=eastwest;whiteSpace=wrap;html=1;movable=1;resizable=1;deletable=1;editable=1;locked=0;connectable=1;" parent="zCXyR9ZO4YI8tIfsWMdl-342" vertex="1">
          <mxGeometry y="56.17857142857143" width="346.4150943396226" height="30.17857142857143" as="geometry" />
        </mxCell>
        <mxCell id="zCXyR9ZO4YI8tIfsWMdl-345" value="- fieldInfo : ArrayList&amp;lt;ArrayList&amp;lt;String&amp;gt;&amp;gt;" style="text;strokeColor=none;fillColor=none;align=left;verticalAlign=top;spacingLeft=4;spacingRight=4;overflow=hidden;rotatable=1;points=[[0,0.5],[1,0.5]];portConstraint=eastwest;whiteSpace=wrap;html=1;movable=1;resizable=1;deletable=1;editable=1;locked=0;connectable=1;" parent="zCXyR9ZO4YI8tIfsWMdl-342" vertex="1">
          <mxGeometry y="86.35714285714286" width="346.4150943396226" height="30.17857142857143" as="geometry" />
        </mxCell>
        <mxCell id="zCXyR9ZO4YI8tIfsWMdl-346" value="" style="line;strokeWidth=1;fillColor=none;align=left;verticalAlign=middle;spacingTop=-1;spacingLeft=3;spacingRight=3;rotatable=1;labelPosition=right;points=[];portConstraint=eastwest;strokeColor=inherit;movable=1;resizable=1;deletable=1;editable=1;locked=0;connectable=1;" parent="zCXyR9ZO4YI8tIfsWMdl-342" vertex="1">
          <mxGeometry y="116.53571428571429" width="346.4150943396226" height="9.285714285714286" as="geometry" />
        </mxCell>
        <mxCell id="zCXyR9ZO4YI8tIfsWMdl-347" value="+ Field(height : long, width : long, weather : String[])" style="text;strokeColor=none;fillColor=none;align=left;verticalAlign=top;spacingLeft=4;spacingRight=4;overflow=hidden;rotatable=1;points=[[0,0.5],[1,0.5]];portConstraint=eastwest;whiteSpace=wrap;html=1;movable=1;resizable=1;deletable=1;editable=1;locked=0;connectable=1;" parent="zCXyR9ZO4YI8tIfsWMdl-342" vertex="1">
          <mxGeometry y="125.82142857142858" width="346.4150943396226" height="30.17857142857143" as="geometry" />
        </mxCell>
        <mxCell id="zCXyR9ZO4YI8tIfsWMdl-348" value="+ updateWeather(weather : String[]) : void" style="text;strokeColor=none;fillColor=none;align=left;verticalAlign=top;spacingLeft=4;spacingRight=4;overflow=hidden;rotatable=1;points=[[0,0.5],[1,0.5]];portConstraint=eastwest;whiteSpace=wrap;html=1;movable=1;resizable=1;deletable=1;editable=1;locked=0;connectable=1;" parent="zCXyR9ZO4YI8tIfsWMdl-342" vertex="1">
          <mxGeometry y="156" width="346.4150943396226" height="30.17857142857143" as="geometry" />
        </mxCell>
        <mxCell id="zCXyR9ZO4YI8tIfsWMdl-350" value="+ getWeather(int x, int y) : String" style="text;strokeColor=none;fillColor=none;align=left;verticalAlign=top;spacingLeft=4;spacingRight=4;overflow=hidden;rotatable=1;points=[[0,0.5],[1,0.5]];portConstraint=eastwest;whiteSpace=wrap;html=1;movable=1;resizable=1;deletable=1;editable=1;locked=0;connectable=1;" parent="zCXyR9ZO4YI8tIfsWMdl-342" vertex="1">
          <mxGeometry y="186.17857142857144" width="346.4150943396226" height="30.17857142857143" as="geometry" />
        </mxCell>
        <mxCell id="zCXyR9ZO4YI8tIfsWMdl-351" value="+ getWeather(coordinates : Coordinates) : String" style="text;strokeColor=none;fillColor=none;align=left;verticalAlign=top;spacingLeft=4;spacingRight=4;overflow=hidden;rotatable=1;points=[[0,0.5],[1,0.5]];portConstraint=eastwest;whiteSpace=wrap;html=1;movable=1;resizable=1;deletable=1;editable=1;locked=0;connectable=1;" parent="zCXyR9ZO4YI8tIfsWMdl-342" vertex="1">
          <mxGeometry y="216.3571428571429" width="346.4150943396226" height="30.17857142857143" as="geometry" />
        </mxCell>
        <mxCell id="zCXyR9ZO4YI8tIfsWMdl-349" value="- generateRandomWeather(weather : String) : String" style="text;strokeColor=none;fillColor=none;align=left;verticalAlign=top;spacingLeft=4;spacingRight=4;overflow=hidden;rotatable=1;points=[[0,0.5],[1,0.5]];portConstraint=eastwest;whiteSpace=wrap;html=1;movable=1;resizable=1;deletable=1;editable=1;locked=0;connectable=1;" parent="zCXyR9ZO4YI8tIfsWMdl-342" vertex="1">
          <mxGeometry y="246.53571428571433" width="346.4150943396226" height="30.17857142857143" as="geometry" />
        </mxCell>
        <mxCell id="zCXyR9ZO4YI8tIfsWMdl-392" style="edgeStyle=orthogonalEdgeStyle;rounded=0;orthogonalLoop=1;jettySize=auto;html=1;endArrow=block;endFill=0;" parent="1" source="zCXyR9ZO4YI8tIfsWMdl-370" target="zCXyR9ZO4YI8tIfsWMdl-378" edge="1">
          <mxGeometry relative="1" as="geometry" />
        </mxCell>
        <mxCell id="zCXyR9ZO4YI8tIfsWMdl-426" style="edgeStyle=orthogonalEdgeStyle;rounded=0;orthogonalLoop=1;jettySize=auto;html=1;endArrow=diamondThin;endFill=0;" parent="1" source="zCXyR9ZO4YI8tIfsWMdl-370" target="nWtyFto2P3ngO1NLWRk3-275" edge="1">
          <mxGeometry relative="1" as="geometry">
            <mxPoint x="525" y="1202" as="targetPoint" />
          </mxGeometry>
        </mxCell>
        <mxCell id="zCXyR9ZO4YI8tIfsWMdl-427" value="0...*" style="edgeLabel;html=1;align=center;verticalAlign=middle;resizable=0;points=[];" parent="zCXyR9ZO4YI8tIfsWMdl-426" vertex="1" connectable="0">
          <mxGeometry x="0.8434" y="-1" relative="1" as="geometry">
            <mxPoint y="5" as="offset" />
          </mxGeometry>
        </mxCell>
        <mxCell id="zCXyR9ZO4YI8tIfsWMdl-428" value="ㅋ" style="edgeStyle=orthogonalEdgeStyle;rounded=0;orthogonalLoop=1;jettySize=auto;html=1;endArrow=open;endFill=0;dashed=1;dashPattern=8 8;" parent="1" source="zCXyR9ZO4YI8tIfsWMdl-370" target="zCXyR9ZO4YI8tIfsWMdl-262" edge="1">
          <mxGeometry relative="1" as="geometry">
            <Array as="points">
              <mxPoint x="173" y="750" />
              <mxPoint x="430" y="750" />
              <mxPoint x="430" y="190" />
              <mxPoint x="940" y="190" />
            </Array>
          </mxGeometry>
        </mxCell>
        <mxCell id="zCXyR9ZO4YI8tIfsWMdl-370" value="WeatherTower" style="swimlane;fontStyle=1;align=center;verticalAlign=top;childLayout=stackLayout;horizontal=1;startSize=26;horizontalStack=0;resizeParent=1;resizeParentMax=0;resizeLast=0;collapsible=1;marginBottom=0;whiteSpace=wrap;html=1;rounded=1;fillColor=#d5e8d4;strokeColor=#82b366;movable=1;resizable=1;rotatable=1;deletable=1;editable=1;locked=0;connectable=1;" parent="1" vertex="1">
          <mxGeometry x="-0.0009433962263756257" y="959.9999999999999" width="346.4150943396226" height="125.82142857142858" as="geometry" />
        </mxCell>
        <mxCell id="zCXyR9ZO4YI8tIfsWMdl-371" value="&lt;u&gt;- weatherProvider : WeatherProvider&lt;/u&gt;" style="text;strokeColor=none;fillColor=none;align=left;verticalAlign=top;spacingLeft=4;spacingRight=4;overflow=hidden;rotatable=0;points=[[0,0.5],[1,0.5]];portConstraint=eastwest;whiteSpace=wrap;html=1;" parent="zCXyR9ZO4YI8tIfsWMdl-370" vertex="1">
          <mxGeometry y="26" width="346.4150943396226" height="30.17857142857143" as="geometry" />
        </mxCell>
        <mxCell id="zCXyR9ZO4YI8tIfsWMdl-374" value="" style="line;strokeWidth=1;fillColor=none;align=left;verticalAlign=middle;spacingTop=-1;spacingLeft=3;spacingRight=3;rotatable=0;labelPosition=right;points=[];portConstraint=eastwest;strokeColor=inherit;" parent="zCXyR9ZO4YI8tIfsWMdl-370" vertex="1">
          <mxGeometry y="56.17857142857143" width="346.4150943396226" height="9.285714285714286" as="geometry" />
        </mxCell>
        <mxCell id="zCXyR9ZO4YI8tIfsWMdl-375" value="+ getWeather(coordinates : Coordinates)" style="text;strokeColor=none;fillColor=none;align=left;verticalAlign=top;spacingLeft=4;spacingRight=4;overflow=hidden;rotatable=0;points=[[0,0.5],[1,0.5]];portConstraint=eastwest;whiteSpace=wrap;html=1;" parent="zCXyR9ZO4YI8tIfsWMdl-370" vertex="1">
          <mxGeometry y="65.46428571428572" width="346.4150943396226" height="30.17857142857143" as="geometry" />
        </mxCell>
        <mxCell id="zCXyR9ZO4YI8tIfsWMdl-376" value="+ changeWeather() : void" style="text;strokeColor=none;fillColor=none;align=left;verticalAlign=top;spacingLeft=4;spacingRight=4;overflow=hidden;rotatable=0;points=[[0,0.5],[1,0.5]];portConstraint=eastwest;whiteSpace=wrap;html=1;" parent="zCXyR9ZO4YI8tIfsWMdl-370" vertex="1">
          <mxGeometry y="95.64285714285715" width="346.4150943396226" height="30.17857142857143" as="geometry" />
        </mxCell>
        <mxCell id="zCXyR9ZO4YI8tIfsWMdl-378" value="Tower" style="swimlane;fontStyle=1;align=center;verticalAlign=top;childLayout=stackLayout;horizontal=1;startSize=26;horizontalStack=0;resizeParent=1;resizeParentMax=0;resizeLast=0;collapsible=1;marginBottom=0;whiteSpace=wrap;html=1;rounded=1;fillColor=#d5e8d4;strokeColor=#82b366;movable=1;resizable=1;rotatable=1;deletable=1;editable=1;locked=0;connectable=1;" parent="1" vertex="1">
          <mxGeometry x="-470.0009433962264" y="884" width="346.4150943396226" height="276.7142857142858" as="geometry" />
        </mxCell>
        <mxCell id="zCXyR9ZO4YI8tIfsWMdl-379" value="&lt;u&gt;- observers : ArrayList&amp;lt;Flyable&amp;gt;&lt;/u&gt;" style="text;strokeColor=none;fillColor=none;align=left;verticalAlign=top;spacingLeft=4;spacingRight=4;overflow=hidden;rotatable=0;points=[[0,0.5],[1,0.5]];portConstraint=eastwest;whiteSpace=wrap;html=1;" parent="zCXyR9ZO4YI8tIfsWMdl-378" vertex="1">
          <mxGeometry y="26" width="346.4150943396226" height="30.17857142857143" as="geometry" />
        </mxCell>
        <mxCell id="zCXyR9ZO4YI8tIfsWMdl-380" value="- printer : Printer" style="text;strokeColor=none;fillColor=none;align=left;verticalAlign=top;spacingLeft=4;spacingRight=4;overflow=hidden;rotatable=0;points=[[0,0.5],[1,0.5]];portConstraint=eastwest;whiteSpace=wrap;html=1;" parent="zCXyR9ZO4YI8tIfsWMdl-378" vertex="1">
          <mxGeometry y="56.17857142857143" width="346.4150943396226" height="30.17857142857143" as="geometry" />
        </mxCell>
        <mxCell id="zCXyR9ZO4YI8tIfsWMdl-382" value="" style="line;strokeWidth=1;fillColor=none;align=left;verticalAlign=middle;spacingTop=-1;spacingLeft=3;spacingRight=3;rotatable=0;labelPosition=right;points=[];portConstraint=eastwest;strokeColor=inherit;" parent="zCXyR9ZO4YI8tIfsWMdl-378" vertex="1">
          <mxGeometry y="86.35714285714286" width="346.4150943396226" height="9.285714285714286" as="geometry" />
        </mxCell>
        <mxCell id="zCXyR9ZO4YI8tIfsWMdl-385" value="+ register(flyable : Flyable) : void" style="text;strokeColor=none;fillColor=none;align=left;verticalAlign=top;spacingLeft=4;spacingRight=4;overflow=hidden;rotatable=0;points=[[0,0.5],[1,0.5]];portConstraint=eastwest;whiteSpace=wrap;html=1;" parent="zCXyR9ZO4YI8tIfsWMdl-378" vertex="1">
          <mxGeometry y="95.64285714285715" width="346.4150943396226" height="30.17857142857143" as="geometry" />
        </mxCell>
        <mxCell id="zCXyR9ZO4YI8tIfsWMdl-386" value="+ unregister(flyable :&amp;nbsp;Flyable) : void" style="text;strokeColor=none;fillColor=none;align=left;verticalAlign=top;spacingLeft=4;spacingRight=4;overflow=hidden;rotatable=0;points=[[0,0.5],[1,0.5]];portConstraint=eastwest;whiteSpace=wrap;html=1;" parent="zCXyR9ZO4YI8tIfsWMdl-378" vertex="1">
          <mxGeometry y="125.82142857142858" width="346.4150943396226" height="30.17857142857143" as="geometry" />
        </mxCell>
        <mxCell id="zCXyR9ZO4YI8tIfsWMdl-387" value="+ getObservers() : ArrayList&amp;lt;Flyable&amp;gt;" style="text;strokeColor=none;fillColor=none;align=left;verticalAlign=top;spacingLeft=4;spacingRight=4;overflow=hidden;rotatable=0;points=[[0,0.5],[1,0.5]];portConstraint=eastwest;whiteSpace=wrap;html=1;" parent="zCXyR9ZO4YI8tIfsWMdl-378" vertex="1">
          <mxGeometry y="156" width="346.4150943396226" height="30.17857142857143" as="geometry" />
        </mxCell>
        <mxCell id="zCXyR9ZO4YI8tIfsWMdl-390" value="# conditionsChanged() : void" style="text;strokeColor=none;fillColor=none;align=left;verticalAlign=top;spacingLeft=4;spacingRight=4;overflow=hidden;rotatable=0;points=[[0,0.5],[1,0.5]];portConstraint=eastwest;whiteSpace=wrap;html=1;" parent="zCXyR9ZO4YI8tIfsWMdl-378" vertex="1">
          <mxGeometry y="186.17857142857144" width="346.4150943396226" height="30.17857142857143" as="geometry" />
        </mxCell>
        <mxCell id="zCXyR9ZO4YI8tIfsWMdl-388" value="- buildRegisterMessage(flyable : Flyable) : String" style="text;strokeColor=none;fillColor=none;align=left;verticalAlign=top;spacingLeft=4;spacingRight=4;overflow=hidden;rotatable=0;points=[[0,0.5],[1,0.5]];portConstraint=eastwest;whiteSpace=wrap;html=1;" parent="zCXyR9ZO4YI8tIfsWMdl-378" vertex="1">
          <mxGeometry y="216.3571428571429" width="346.4150943396226" height="30.17857142857143" as="geometry" />
        </mxCell>
        <mxCell id="zCXyR9ZO4YI8tIfsWMdl-389" value="- buildUnregisterMessage(flyable : Flyable) : String" style="text;strokeColor=none;fillColor=none;align=left;verticalAlign=top;spacingLeft=4;spacingRight=4;overflow=hidden;rotatable=0;points=[[0,0.5],[1,0.5]];portConstraint=eastwest;whiteSpace=wrap;html=1;" parent="zCXyR9ZO4YI8tIfsWMdl-378" vertex="1">
          <mxGeometry y="246.53571428571433" width="346.4150943396226" height="30.17857142857143" as="geometry" />
        </mxCell>
        <mxCell id="zCXyR9ZO4YI8tIfsWMdl-393" style="edgeStyle=orthogonalEdgeStyle;rounded=0;orthogonalLoop=1;jettySize=auto;html=1;endArrow=diamondThin;endFill=1;" parent="1" source="zCXyR9ZO4YI8tIfsWMdl-314" target="zCXyR9ZO4YI8tIfsWMdl-370" edge="1">
          <mxGeometry relative="1" as="geometry">
            <Array as="points">
              <mxPoint x="173" y="1470" />
              <mxPoint x="173" y="1470" />
            </Array>
          </mxGeometry>
        </mxCell>
        <mxCell id="zCXyR9ZO4YI8tIfsWMdl-394" value="SimulationMetaData" style="swimlane;fontStyle=1;align=center;verticalAlign=top;childLayout=stackLayout;horizontal=1;startSize=26;horizontalStack=0;resizeParent=1;resizeParentMax=0;resizeLast=0;collapsible=1;marginBottom=0;whiteSpace=wrap;html=1;rounded=1;fillColor=#d5e8d4;strokeColor=#82b366;movable=1;resizable=1;rotatable=1;deletable=1;editable=1;locked=0;connectable=1;" parent="1" vertex="1">
          <mxGeometry x="505" y="303" width="270" height="246.53571428571433" as="geometry" />
        </mxCell>
        <mxCell id="zCXyR9ZO4YI8tIfsWMdl-396" value="+ simulationCountIndex : int {readOnly}" style="text;strokeColor=none;fillColor=none;align=left;verticalAlign=top;spacingLeft=4;spacingRight=4;overflow=hidden;rotatable=0;points=[[0,0.5],[1,0.5]];portConstraint=eastwest;whiteSpace=wrap;html=1;" parent="zCXyR9ZO4YI8tIfsWMdl-394" vertex="1">
          <mxGeometry y="26" width="270" height="30.17857142857143" as="geometry" />
        </mxCell>
        <mxCell id="zCXyR9ZO4YI8tIfsWMdl-404" value="+ latitudeMinimum : long {readOnly}" style="text;strokeColor=none;fillColor=none;align=left;verticalAlign=top;spacingLeft=4;spacingRight=4;overflow=hidden;rotatable=0;points=[[0,0.5],[1,0.5]];portConstraint=eastwest;whiteSpace=wrap;html=1;" parent="zCXyR9ZO4YI8tIfsWMdl-394" vertex="1">
          <mxGeometry y="56.17857142857143" width="270" height="30.17857142857143" as="geometry" />
        </mxCell>
        <mxCell id="zCXyR9ZO4YI8tIfsWMdl-405" value="+ latitudeMaximum&amp;nbsp;: long {readOnly}" style="text;strokeColor=none;fillColor=none;align=left;verticalAlign=top;spacingLeft=4;spacingRight=4;overflow=hidden;rotatable=0;points=[[0,0.5],[1,0.5]];portConstraint=eastwest;whiteSpace=wrap;html=1;" parent="zCXyR9ZO4YI8tIfsWMdl-394" vertex="1">
          <mxGeometry y="86.35714285714286" width="270" height="30.17857142857143" as="geometry" />
        </mxCell>
        <mxCell id="zCXyR9ZO4YI8tIfsWMdl-406" value="+ longitudeMinimum : long {readOnly}" style="text;strokeColor=none;fillColor=none;align=left;verticalAlign=top;spacingLeft=4;spacingRight=4;overflow=hidden;rotatable=0;points=[[0,0.5],[1,0.5]];portConstraint=eastwest;whiteSpace=wrap;html=1;" parent="zCXyR9ZO4YI8tIfsWMdl-394" vertex="1">
          <mxGeometry y="116.53571428571429" width="270" height="30.17857142857143" as="geometry" />
        </mxCell>
        <mxCell id="zCXyR9ZO4YI8tIfsWMdl-407" value="+ longitudeMaximum : long {readOnly}" style="text;strokeColor=none;fillColor=none;align=left;verticalAlign=top;spacingLeft=4;spacingRight=4;overflow=hidden;rotatable=0;points=[[0,0.5],[1,0.5]];portConstraint=eastwest;whiteSpace=wrap;html=1;" parent="zCXyR9ZO4YI8tIfsWMdl-394" vertex="1">
          <mxGeometry y="146.71428571428572" width="270" height="30.17857142857143" as="geometry" />
        </mxCell>
        <mxCell id="zCXyR9ZO4YI8tIfsWMdl-408" value="+ heightMinimum : int {readOnly}" style="text;strokeColor=none;fillColor=none;align=left;verticalAlign=top;spacingLeft=4;spacingRight=4;overflow=hidden;rotatable=0;points=[[0,0.5],[1,0.5]];portConstraint=eastwest;whiteSpace=wrap;html=1;" parent="zCXyR9ZO4YI8tIfsWMdl-394" vertex="1">
          <mxGeometry y="176.89285714285717" width="270" height="30.17857142857143" as="geometry" />
        </mxCell>
        <mxCell id="zCXyR9ZO4YI8tIfsWMdl-409" value="+ heightMaximum : int {readOnly}" style="text;strokeColor=none;fillColor=none;align=left;verticalAlign=top;spacingLeft=4;spacingRight=4;overflow=hidden;rotatable=0;points=[[0,0.5],[1,0.5]];portConstraint=eastwest;whiteSpace=wrap;html=1;" parent="zCXyR9ZO4YI8tIfsWMdl-394" vertex="1">
          <mxGeometry y="207.0714285714286" width="270" height="30.17857142857143" as="geometry" />
        </mxCell>
        <mxCell id="zCXyR9ZO4YI8tIfsWMdl-397" value="" style="line;strokeWidth=1;fillColor=none;align=left;verticalAlign=middle;spacingTop=-1;spacingLeft=3;spacingRight=3;rotatable=0;labelPosition=right;points=[];portConstraint=eastwest;strokeColor=inherit;" parent="zCXyR9ZO4YI8tIfsWMdl-394" vertex="1">
          <mxGeometry y="237.25000000000006" width="270" height="9.285714285714286" as="geometry" />
        </mxCell>
        <mxCell id="zCXyR9ZO4YI8tIfsWMdl-429" style="edgeStyle=orthogonalEdgeStyle;rounded=0;orthogonalLoop=1;jettySize=auto;html=1;endArrow=open;endFill=0;dashed=1;dashPattern=8 8;" parent="1" source="zCXyR9ZO4YI8tIfsWMdl-410" target="zCXyR9ZO4YI8tIfsWMdl-262" edge="1">
          <mxGeometry relative="1" as="geometry">
            <Array as="points">
              <mxPoint x="250" y="190" />
              <mxPoint x="940" y="190" />
            </Array>
          </mxGeometry>
        </mxCell>
        <mxCell id="zCXyR9ZO4YI8tIfsWMdl-410" value="Printer" style="swimlane;fontStyle=1;align=center;verticalAlign=top;childLayout=stackLayout;horizontal=1;startSize=26;horizontalStack=0;resizeParent=1;resizeParentMax=0;resizeLast=0;collapsible=1;marginBottom=0;whiteSpace=wrap;html=1;rounded=1;fillColor=#d5e8d4;strokeColor=#82b366;movable=1;resizable=1;rotatable=1;deletable=1;editable=1;locked=0;connectable=1;" parent="1" vertex="1">
          <mxGeometry x="9.999056603773624" y="438.54" width="346.4150943396226" height="186.17857142857144" as="geometry" />
        </mxCell>
        <mxCell id="zCXyR9ZO4YI8tIfsWMdl-411" value="&lt;u&gt;- filepath : String&lt;/u&gt;" style="text;strokeColor=none;fillColor=none;align=left;verticalAlign=top;spacingLeft=4;spacingRight=4;overflow=hidden;rotatable=0;points=[[0,0.5],[1,0.5]];portConstraint=eastwest;whiteSpace=wrap;html=1;" parent="zCXyR9ZO4YI8tIfsWMdl-410" vertex="1">
          <mxGeometry y="26" width="346.4150943396226" height="30.17857142857143" as="geometry" />
        </mxCell>
        <mxCell id="zCXyR9ZO4YI8tIfsWMdl-414" value="" style="line;strokeWidth=1;fillColor=none;align=left;verticalAlign=middle;spacingTop=-1;spacingLeft=3;spacingRight=3;rotatable=0;labelPosition=right;points=[];portConstraint=eastwest;strokeColor=inherit;" parent="zCXyR9ZO4YI8tIfsWMdl-410" vertex="1">
          <mxGeometry y="56.17857142857143" width="346.4150943396226" height="9.285714285714286" as="geometry" />
        </mxCell>
        <mxCell id="zCXyR9ZO4YI8tIfsWMdl-415" value="- Printer()" style="text;strokeColor=none;fillColor=none;align=left;verticalAlign=top;spacingLeft=4;spacingRight=4;overflow=hidden;rotatable=0;points=[[0,0.5],[1,0.5]];portConstraint=eastwest;whiteSpace=wrap;html=1;" parent="zCXyR9ZO4YI8tIfsWMdl-410" vertex="1">
          <mxGeometry y="65.46428571428572" width="346.4150943396226" height="30.17857142857143" as="geometry" />
        </mxCell>
        <mxCell id="zCXyR9ZO4YI8tIfsWMdl-425" style="edgeStyle=orthogonalEdgeStyle;rounded=0;orthogonalLoop=1;jettySize=auto;html=1;endArrow=diamondThin;endFill=0;" parent="zCXyR9ZO4YI8tIfsWMdl-410" source="zCXyR9ZO4YI8tIfsWMdl-416" target="zCXyR9ZO4YI8tIfsWMdl-410" edge="1">
          <mxGeometry relative="1" as="geometry">
            <Array as="points">
              <mxPoint x="-20" y="111" />
              <mxPoint x="-20" y="-30" />
              <mxPoint x="173" y="-30" />
            </Array>
          </mxGeometry>
        </mxCell>
        <mxCell id="zCXyR9ZO4YI8tIfsWMdl-416" value="&lt;u&gt;+ getInstance() : Printer&lt;/u&gt;" style="text;strokeColor=none;fillColor=none;align=left;verticalAlign=top;spacingLeft=4;spacingRight=4;overflow=hidden;rotatable=0;points=[[0,0.5],[1,0.5]];portConstraint=eastwest;whiteSpace=wrap;html=1;" parent="zCXyR9ZO4YI8tIfsWMdl-410" vertex="1">
          <mxGeometry y="95.64285714285715" width="346.4150943396226" height="30.17857142857143" as="geometry" />
        </mxCell>
        <mxCell id="zCXyR9ZO4YI8tIfsWMdl-422" value="+ setFilepath(filepath : String) : void" style="text;strokeColor=none;fillColor=none;align=left;verticalAlign=top;spacingLeft=4;spacingRight=4;overflow=hidden;rotatable=0;points=[[0,0.5],[1,0.5]];portConstraint=eastwest;whiteSpace=wrap;html=1;" parent="zCXyR9ZO4YI8tIfsWMdl-410" vertex="1">
          <mxGeometry y="125.82142857142858" width="346.4150943396226" height="30.17857142857143" as="geometry" />
        </mxCell>
        <mxCell id="zCXyR9ZO4YI8tIfsWMdl-423" value="+ printToFile(message : String) : void" style="text;strokeColor=none;fillColor=none;align=left;verticalAlign=top;spacingLeft=4;spacingRight=4;overflow=hidden;rotatable=0;points=[[0,0.5],[1,0.5]];portConstraint=eastwest;whiteSpace=wrap;html=1;" parent="zCXyR9ZO4YI8tIfsWMdl-410" vertex="1">
          <mxGeometry y="156" width="346.4150943396226" height="30.17857142857143" as="geometry" />
        </mxCell>
        <mxCell id="zCXyR9ZO4YI8tIfsWMdl-424" style="edgeStyle=orthogonalEdgeStyle;rounded=0;orthogonalLoop=1;jettySize=auto;html=1;endArrow=circlePlus;endFill=0;" parent="1" source="zCXyR9ZO4YI8tIfsWMdl-419" target="zCXyR9ZO4YI8tIfsWMdl-410" edge="1">
          <mxGeometry relative="1" as="geometry" />
        </mxCell>
        <mxCell id="zCXyR9ZO4YI8tIfsWMdl-419" value="Holder" style="swimlane;fontStyle=1;align=center;verticalAlign=top;childLayout=stackLayout;horizontal=1;startSize=26;horizontalStack=0;resizeParent=1;resizeParentMax=0;resizeLast=0;collapsible=1;marginBottom=0;whiteSpace=wrap;html=1;rounded=1;fillColor=#d5e8d4;strokeColor=#82b366;movable=1;resizable=1;rotatable=1;deletable=1;editable=1;locked=0;connectable=1;" parent="1" vertex="1">
          <mxGeometry x="9.999056603773568" y="654.54" width="346.4150943396226" height="65.46428571428572" as="geometry" />
        </mxCell>
        <mxCell id="zCXyR9ZO4YI8tIfsWMdl-420" value="&lt;u&gt;- INSTANCE : Printer {readOnly}&lt;/u&gt;" style="text;strokeColor=none;fillColor=none;align=left;verticalAlign=top;spacingLeft=4;spacingRight=4;overflow=hidden;rotatable=1;points=[[0,0.5],[1,0.5]];portConstraint=eastwest;whiteSpace=wrap;html=1;movable=1;resizable=1;deletable=1;editable=1;locked=0;connectable=1;" parent="zCXyR9ZO4YI8tIfsWMdl-419" vertex="1">
          <mxGeometry y="26" width="346.4150943396226" height="30.17857142857143" as="geometry" />
        </mxCell>
        <mxCell id="zCXyR9ZO4YI8tIfsWMdl-421" value="" style="line;strokeWidth=1;fillColor=none;align=left;verticalAlign=middle;spacingTop=-1;spacingLeft=3;spacingRight=3;rotatable=1;labelPosition=right;points=[];portConstraint=eastwest;strokeColor=inherit;movable=1;resizable=1;deletable=1;editable=1;locked=0;connectable=1;" parent="zCXyR9ZO4YI8tIfsWMdl-419" vertex="1">
          <mxGeometry y="56.17857142857143" width="346.4150943396226" height="9.285714285714286" as="geometry" />
        </mxCell>
        <mxCell id="zCXyR9ZO4YI8tIfsWMdl-433" value="InvalidAircraftTypeException" style="swimlane;fontStyle=1;align=center;verticalAlign=top;childLayout=stackLayout;horizontal=1;startSize=26;horizontalStack=0;resizeParent=1;resizeParentMax=0;resizeLast=0;collapsible=1;marginBottom=0;whiteSpace=wrap;html=1;rounded=1;fillColor=#d5e8d4;strokeColor=#82b366;movable=1;resizable=1;rotatable=1;deletable=1;editable=1;locked=0;connectable=1;" parent="1" vertex="1">
          <mxGeometry x="-490.0009433962264" y="239.9999999999999" width="346.4150943396226" height="95.64285714285715" as="geometry" />
        </mxCell>
        <mxCell id="zCXyR9ZO4YI8tIfsWMdl-435" value="" style="line;strokeWidth=1;fillColor=none;align=left;verticalAlign=middle;spacingTop=-1;spacingLeft=3;spacingRight=3;rotatable=0;labelPosition=right;points=[];portConstraint=eastwest;strokeColor=inherit;" parent="zCXyR9ZO4YI8tIfsWMdl-433" vertex="1">
          <mxGeometry y="26" width="346.4150943396226" height="9.285714285714286" as="geometry" />
        </mxCell>
        <mxCell id="zCXyR9ZO4YI8tIfsWMdl-436" value="+ InvalidAircraftTypeException(aircraftName : String)" style="text;strokeColor=none;fillColor=none;align=left;verticalAlign=top;spacingLeft=4;spacingRight=4;overflow=hidden;rotatable=0;points=[[0,0.5],[1,0.5]];portConstraint=eastwest;whiteSpace=wrap;html=1;" parent="zCXyR9ZO4YI8tIfsWMdl-433" vertex="1">
          <mxGeometry y="35.285714285714285" width="346.4150943396226" height="30.17857142857143" as="geometry" />
        </mxCell>
        <mxCell id="zCXyR9ZO4YI8tIfsWMdl-437" value="&lt;u&gt;- buildExceptionMessage(aircraftName : String)&lt;/u&gt;" style="text;strokeColor=none;fillColor=none;align=left;verticalAlign=top;spacingLeft=4;spacingRight=4;overflow=hidden;rotatable=0;points=[[0,0.5],[1,0.5]];portConstraint=eastwest;whiteSpace=wrap;html=1;" parent="zCXyR9ZO4YI8tIfsWMdl-433" vertex="1">
          <mxGeometry y="65.46428571428572" width="346.4150943396226" height="30.17857142857143" as="geometry" />
        </mxCell>
        <mxCell id="zCXyR9ZO4YI8tIfsWMdl-438" value="InvalidArgumentsException" style="swimlane;fontStyle=1;align=center;verticalAlign=top;childLayout=stackLayout;horizontal=1;startSize=26;horizontalStack=0;resizeParent=1;resizeParentMax=0;resizeLast=0;collapsible=1;marginBottom=0;whiteSpace=wrap;html=1;rounded=1;fillColor=#d5e8d4;strokeColor=#82b366;movable=1;resizable=1;rotatable=1;deletable=1;editable=1;locked=0;connectable=1;" parent="1" vertex="1">
          <mxGeometry x="-490.0009433962264" y="349.9999999999999" width="346.4150943396226" height="95.64285714285715" as="geometry" />
        </mxCell>
        <mxCell id="zCXyR9ZO4YI8tIfsWMdl-439" value="" style="line;strokeWidth=1;fillColor=none;align=left;verticalAlign=middle;spacingTop=-1;spacingLeft=3;spacingRight=3;rotatable=0;labelPosition=right;points=[];portConstraint=eastwest;strokeColor=inherit;" parent="zCXyR9ZO4YI8tIfsWMdl-438" vertex="1">
          <mxGeometry y="26" width="346.4150943396226" height="9.285714285714286" as="geometry" />
        </mxCell>
        <mxCell id="zCXyR9ZO4YI8tIfsWMdl-440" value="+&amp;nbsp;InvalidArgumentsException&lt;span style=&quot;background-color: initial;&quot;&gt;()&lt;/span&gt;" style="text;strokeColor=none;fillColor=none;align=left;verticalAlign=top;spacingLeft=4;spacingRight=4;overflow=hidden;rotatable=0;points=[[0,0.5],[1,0.5]];portConstraint=eastwest;whiteSpace=wrap;html=1;" parent="zCXyR9ZO4YI8tIfsWMdl-438" vertex="1">
          <mxGeometry y="35.285714285714285" width="346.4150943396226" height="30.17857142857143" as="geometry" />
        </mxCell>
        <mxCell id="zCXyR9ZO4YI8tIfsWMdl-441" value="&lt;u&gt;- buildExceptionMessage()&lt;/u&gt;" style="text;strokeColor=none;fillColor=none;align=left;verticalAlign=top;spacingLeft=4;spacingRight=4;overflow=hidden;rotatable=0;points=[[0,0.5],[1,0.5]];portConstraint=eastwest;whiteSpace=wrap;html=1;" parent="zCXyR9ZO4YI8tIfsWMdl-438" vertex="1">
          <mxGeometry y="65.46428571428572" width="346.4150943396226" height="30.17857142857143" as="geometry" />
        </mxCell>
        <mxCell id="zCXyR9ZO4YI8tIfsWMdl-442" value="InvalidSimulationCountException" style="swimlane;fontStyle=1;align=center;verticalAlign=top;childLayout=stackLayout;horizontal=1;startSize=26;horizontalStack=0;resizeParent=1;resizeParentMax=0;resizeLast=0;collapsible=1;marginBottom=0;whiteSpace=wrap;html=1;rounded=1;fillColor=#d5e8d4;strokeColor=#82b366;movable=1;resizable=1;rotatable=1;deletable=1;editable=1;locked=0;connectable=1;" parent="1" vertex="1">
          <mxGeometry x="-490.0009433962264" y="462.89999999999986" width="346.4150943396226" height="95.64285714285715" as="geometry" />
        </mxCell>
        <mxCell id="zCXyR9ZO4YI8tIfsWMdl-443" value="" style="line;strokeWidth=1;fillColor=none;align=left;verticalAlign=middle;spacingTop=-1;spacingLeft=3;spacingRight=3;rotatable=0;labelPosition=right;points=[];portConstraint=eastwest;strokeColor=inherit;" parent="zCXyR9ZO4YI8tIfsWMdl-442" vertex="1">
          <mxGeometry y="26" width="346.4150943396226" height="9.285714285714286" as="geometry" />
        </mxCell>
        <mxCell id="zCXyR9ZO4YI8tIfsWMdl-444" value="+&amp;nbsp;InvalidSimulationCountException&lt;span style=&quot;background-color: initial;&quot;&gt;(parsed : String)&lt;/span&gt;" style="text;strokeColor=none;fillColor=none;align=left;verticalAlign=top;spacingLeft=4;spacingRight=4;overflow=hidden;rotatable=0;points=[[0,0.5],[1,0.5]];portConstraint=eastwest;whiteSpace=wrap;html=1;" parent="zCXyR9ZO4YI8tIfsWMdl-442" vertex="1">
          <mxGeometry y="35.285714285714285" width="346.4150943396226" height="30.17857142857143" as="geometry" />
        </mxCell>
        <mxCell id="zCXyR9ZO4YI8tIfsWMdl-445" value="&lt;u&gt;- buildExceptionMessage(parsed : String)&lt;/u&gt;" style="text;strokeColor=none;fillColor=none;align=left;verticalAlign=top;spacingLeft=4;spacingRight=4;overflow=hidden;rotatable=0;points=[[0,0.5],[1,0.5]];portConstraint=eastwest;whiteSpace=wrap;html=1;" parent="zCXyR9ZO4YI8tIfsWMdl-442" vertex="1">
          <mxGeometry y="65.46428571428572" width="346.4150943396226" height="30.17857142857143" as="geometry" />
        </mxCell>
        <mxCell id="zCXyR9ZO4YI8tIfsWMdl-446" value="InvalidCoordinatesException" style="swimlane;fontStyle=1;align=center;verticalAlign=top;childLayout=stackLayout;horizontal=1;startSize=26;horizontalStack=0;resizeParent=1;resizeParentMax=0;resizeLast=0;collapsible=1;marginBottom=0;whiteSpace=wrap;html=1;rounded=1;fillColor=#d5e8d4;strokeColor=#82b366;movable=1;resizable=1;rotatable=1;deletable=1;editable=1;locked=0;connectable=1;" parent="1" vertex="1">
          <mxGeometry x="-490" y="579.8199999999999" width="400" height="95.64285714285715" as="geometry" />
        </mxCell>
        <mxCell id="zCXyR9ZO4YI8tIfsWMdl-447" value="" style="line;strokeWidth=1;fillColor=none;align=left;verticalAlign=middle;spacingTop=-1;spacingLeft=3;spacingRight=3;rotatable=0;labelPosition=right;points=[];portConstraint=eastwest;strokeColor=inherit;" parent="zCXyR9ZO4YI8tIfsWMdl-446" vertex="1">
          <mxGeometry y="26" width="400" height="9.285714285714286" as="geometry" />
        </mxCell>
        <mxCell id="zCXyR9ZO4YI8tIfsWMdl-448" value="+&amp;nbsp;InvalidCoordinatesException&lt;span style=&quot;background-color: initial;&quot;&gt;(longitude : int, latitude : int, height : int)&lt;/span&gt;" style="text;strokeColor=none;fillColor=none;align=left;verticalAlign=top;spacingLeft=4;spacingRight=4;overflow=hidden;rotatable=0;points=[[0,0.5],[1,0.5]];portConstraint=eastwest;whiteSpace=wrap;html=1;" parent="zCXyR9ZO4YI8tIfsWMdl-446" vertex="1">
          <mxGeometry y="35.285714285714285" width="400" height="30.17857142857143" as="geometry" />
        </mxCell>
        <mxCell id="zCXyR9ZO4YI8tIfsWMdl-449" value="&lt;u style=&quot;border-color: var(--border-color);&quot;&gt;- buildExceptionMessage(longitude : int, latitude : int, height : int)&lt;/u&gt;" style="text;strokeColor=none;fillColor=none;align=left;verticalAlign=top;spacingLeft=4;spacingRight=4;overflow=hidden;rotatable=0;points=[[0,0.5],[1,0.5]];portConstraint=eastwest;whiteSpace=wrap;html=1;" parent="zCXyR9ZO4YI8tIfsWMdl-446" vertex="1">
          <mxGeometry y="65.46428571428572" width="400" height="30.17857142857143" as="geometry" />
        </mxCell>
        <mxCell id="nWtyFto2P3ngO1NLWRk3-313" value="" style="group" vertex="1" connectable="0" parent="1">
          <mxGeometry x="540" y="730" width="2255" height="1260" as="geometry" />
        </mxCell>
        <mxCell id="nWtyFto2P3ngO1NLWRk3-138" value="frame" style="shape=umlFrame;whiteSpace=wrap;html=1;pointerEvents=0;" vertex="1" parent="nWtyFto2P3ngO1NLWRk3-313">
          <mxGeometry x="125" width="2130" height="1260" as="geometry" />
        </mxCell>
        <mxCell id="nWtyFto2P3ngO1NLWRk3-139" value="&lt;b&gt;&lt;i&gt;Aircraft&lt;/i&gt;&lt;/b&gt;" style="html=1;whiteSpace=wrap;" vertex="1" parent="nWtyFto2P3ngO1NLWRk3-313">
          <mxGeometry x="120" width="110" height="50" as="geometry" />
        </mxCell>
        <mxCell id="nWtyFto2P3ngO1NLWRk3-159" style="edgeStyle=orthogonalEdgeStyle;rounded=0;orthogonalLoop=1;jettySize=auto;html=1;exitX=0.75;exitY=0;exitDx=0;exitDy=0;endArrow=block;endFill=0;" edge="1" parent="nWtyFto2P3ngO1NLWRk3-313" source="nWtyFto2P3ngO1NLWRk3-161">
          <mxGeometry relative="1" as="geometry">
            <Array as="points">
              <mxPoint x="363" y="780" />
              <mxPoint x="605" y="780" />
            </Array>
            <mxPoint x="605" y="670" as="targetPoint" />
          </mxGeometry>
        </mxCell>
        <mxCell id="nWtyFto2P3ngO1NLWRk3-161" value="Baloon" style="swimlane;fontStyle=1;align=center;verticalAlign=top;childLayout=stackLayout;horizontal=1;startSize=26;horizontalStack=0;resizeParent=1;resizeParentMax=0;resizeLast=0;collapsible=1;marginBottom=0;whiteSpace=wrap;html=1;rounded=1;fillColor=#d5e8d4;strokeColor=#82b366;" vertex="1" parent="nWtyFto2P3ngO1NLWRk3-313">
          <mxGeometry x="185" y="870" width="290" height="216" as="geometry" />
        </mxCell>
        <mxCell id="nWtyFto2P3ngO1NLWRk3-162" value="" style="line;strokeWidth=1;fillColor=none;align=left;verticalAlign=middle;spacingTop=-1;spacingLeft=3;spacingRight=3;rotatable=0;labelPosition=right;points=[];portConstraint=eastwest;strokeColor=inherit;" vertex="1" parent="nWtyFto2P3ngO1NLWRk3-161">
          <mxGeometry y="26" width="290" height="8" as="geometry" />
        </mxCell>
        <mxCell id="nWtyFto2P3ngO1NLWRk3-163" value="+ Baloon(name : String, coordinates : Coordinates)" style="text;strokeColor=none;fillColor=none;align=left;verticalAlign=top;spacingLeft=4;spacingRight=4;overflow=hidden;rotatable=0;points=[[0,0.5],[1,0.5]];portConstraint=eastwest;whiteSpace=wrap;html=1;" vertex="1" parent="nWtyFto2P3ngO1NLWRk3-161">
          <mxGeometry y="34" width="290" height="26" as="geometry" />
        </mxCell>
        <mxCell id="nWtyFto2P3ngO1NLWRk3-164" value="+ updateConditions() : void" style="text;strokeColor=none;fillColor=none;align=left;verticalAlign=top;spacingLeft=4;spacingRight=4;overflow=hidden;rotatable=0;points=[[0,0.5],[1,0.5]];portConstraint=eastwest;whiteSpace=wrap;html=1;" vertex="1" parent="nWtyFto2P3ngO1NLWRk3-161">
          <mxGeometry y="60" width="290" height="26" as="geometry" />
        </mxCell>
        <mxCell id="nWtyFto2P3ngO1NLWRk3-165" value="+ registerTower(WeatherTower) : void" style="text;strokeColor=none;fillColor=none;align=left;verticalAlign=top;spacingLeft=4;spacingRight=4;overflow=hidden;rotatable=0;points=[[0,0.5],[1,0.5]];portConstraint=eastwest;whiteSpace=wrap;html=1;" vertex="1" parent="nWtyFto2P3ngO1NLWRk3-161">
          <mxGeometry y="86" width="290" height="26" as="geometry" />
        </mxCell>
        <mxCell id="nWtyFto2P3ngO1NLWRk3-166" value="+ land(WeatherTower) : void" style="text;strokeColor=none;fillColor=none;align=left;verticalAlign=top;spacingLeft=4;spacingRight=4;overflow=hidden;rotatable=0;points=[[0,0.5],[1,0.5]];portConstraint=eastwest;whiteSpace=wrap;html=1;" vertex="1" parent="nWtyFto2P3ngO1NLWRk3-161">
          <mxGeometry y="112" width="290" height="26" as="geometry" />
        </mxCell>
        <mxCell id="nWtyFto2P3ngO1NLWRk3-167" value="+ getCoordinates() : Coordinates" style="text;strokeColor=none;fillColor=none;align=left;verticalAlign=top;spacingLeft=4;spacingRight=4;overflow=hidden;rotatable=0;points=[[0,0.5],[1,0.5]];portConstraint=eastwest;whiteSpace=wrap;html=1;" vertex="1" parent="nWtyFto2P3ngO1NLWRk3-161">
          <mxGeometry y="138" width="290" height="26" as="geometry" />
        </mxCell>
        <mxCell id="nWtyFto2P3ngO1NLWRk3-168" value="+ getAircraftBarcode() : String" style="text;strokeColor=none;fillColor=none;align=left;verticalAlign=top;spacingLeft=4;spacingRight=4;overflow=hidden;rotatable=0;points=[[0,0.5],[1,0.5]];portConstraint=eastwest;whiteSpace=wrap;html=1;" vertex="1" parent="nWtyFto2P3ngO1NLWRk3-161">
          <mxGeometry y="164" width="290" height="26" as="geometry" />
        </mxCell>
        <mxCell id="nWtyFto2P3ngO1NLWRk3-169" value="+ speak(followTower : WeatherTower) : void" style="text;strokeColor=none;fillColor=none;align=left;verticalAlign=top;spacingLeft=4;spacingRight=4;overflow=hidden;rotatable=0;points=[[0,0.5],[1,0.5]];portConstraint=eastwest;whiteSpace=wrap;html=1;" vertex="1" parent="nWtyFto2P3ngO1NLWRk3-161">
          <mxGeometry y="190" width="290" height="26" as="geometry" />
        </mxCell>
        <mxCell id="nWtyFto2P3ngO1NLWRk3-170" style="edgeStyle=orthogonalEdgeStyle;rounded=0;orthogonalLoop=1;jettySize=auto;html=1;endArrow=block;endFill=0;" edge="1" parent="nWtyFto2P3ngO1NLWRk3-313" source="nWtyFto2P3ngO1NLWRk3-172">
          <mxGeometry relative="1" as="geometry">
            <Array as="points">
              <mxPoint x="645" y="780" />
              <mxPoint x="605" y="780" />
            </Array>
            <mxPoint x="605" y="670" as="targetPoint" />
          </mxGeometry>
        </mxCell>
        <mxCell id="nWtyFto2P3ngO1NLWRk3-172" value="Helicopter" style="swimlane;fontStyle=1;align=center;verticalAlign=top;childLayout=stackLayout;horizontal=1;startSize=26;horizontalStack=0;resizeParent=1;resizeParentMax=0;resizeLast=0;collapsible=1;marginBottom=0;whiteSpace=wrap;html=1;rounded=1;fillColor=#d5e8d4;strokeColor=#82b366;" vertex="1" parent="nWtyFto2P3ngO1NLWRk3-313">
          <mxGeometry x="495" y="870" width="300" height="216" as="geometry" />
        </mxCell>
        <mxCell id="nWtyFto2P3ngO1NLWRk3-173" value="" style="line;strokeWidth=1;fillColor=none;align=left;verticalAlign=middle;spacingTop=-1;spacingLeft=3;spacingRight=3;rotatable=0;labelPosition=right;points=[];portConstraint=eastwest;strokeColor=inherit;" vertex="1" parent="nWtyFto2P3ngO1NLWRk3-172">
          <mxGeometry y="26" width="300" height="8" as="geometry" />
        </mxCell>
        <mxCell id="nWtyFto2P3ngO1NLWRk3-174" value="+ Helicopter(name : String, coordinates : Coordinates)" style="text;strokeColor=none;fillColor=none;align=left;verticalAlign=top;spacingLeft=4;spacingRight=4;overflow=hidden;rotatable=0;points=[[0,0.5],[1,0.5]];portConstraint=eastwest;whiteSpace=wrap;html=1;" vertex="1" parent="nWtyFto2P3ngO1NLWRk3-172">
          <mxGeometry y="34" width="300" height="26" as="geometry" />
        </mxCell>
        <mxCell id="nWtyFto2P3ngO1NLWRk3-175" value="+ updateConditions() : void" style="text;strokeColor=none;fillColor=none;align=left;verticalAlign=top;spacingLeft=4;spacingRight=4;overflow=hidden;rotatable=0;points=[[0,0.5],[1,0.5]];portConstraint=eastwest;whiteSpace=wrap;html=1;" vertex="1" parent="nWtyFto2P3ngO1NLWRk3-172">
          <mxGeometry y="60" width="300" height="26" as="geometry" />
        </mxCell>
        <mxCell id="nWtyFto2P3ngO1NLWRk3-176" value="+ registerTower(WeatherTower) : void" style="text;strokeColor=none;fillColor=none;align=left;verticalAlign=top;spacingLeft=4;spacingRight=4;overflow=hidden;rotatable=0;points=[[0,0.5],[1,0.5]];portConstraint=eastwest;whiteSpace=wrap;html=1;" vertex="1" parent="nWtyFto2P3ngO1NLWRk3-172">
          <mxGeometry y="86" width="300" height="26" as="geometry" />
        </mxCell>
        <mxCell id="nWtyFto2P3ngO1NLWRk3-177" value="+ land(WeatherTower) : void" style="text;strokeColor=none;fillColor=none;align=left;verticalAlign=top;spacingLeft=4;spacingRight=4;overflow=hidden;rotatable=0;points=[[0,0.5],[1,0.5]];portConstraint=eastwest;whiteSpace=wrap;html=1;" vertex="1" parent="nWtyFto2P3ngO1NLWRk3-172">
          <mxGeometry y="112" width="300" height="26" as="geometry" />
        </mxCell>
        <mxCell id="nWtyFto2P3ngO1NLWRk3-178" value="+ getCoordinates() : Coordinates" style="text;strokeColor=none;fillColor=none;align=left;verticalAlign=top;spacingLeft=4;spacingRight=4;overflow=hidden;rotatable=0;points=[[0,0.5],[1,0.5]];portConstraint=eastwest;whiteSpace=wrap;html=1;" vertex="1" parent="nWtyFto2P3ngO1NLWRk3-172">
          <mxGeometry y="138" width="300" height="26" as="geometry" />
        </mxCell>
        <mxCell id="nWtyFto2P3ngO1NLWRk3-179" value="+ getAircraftBarcode() : String" style="text;strokeColor=none;fillColor=none;align=left;verticalAlign=top;spacingLeft=4;spacingRight=4;overflow=hidden;rotatable=0;points=[[0,0.5],[1,0.5]];portConstraint=eastwest;whiteSpace=wrap;html=1;" vertex="1" parent="nWtyFto2P3ngO1NLWRk3-172">
          <mxGeometry y="164" width="300" height="26" as="geometry" />
        </mxCell>
        <mxCell id="nWtyFto2P3ngO1NLWRk3-180" value="+ speak(followTower : WeatherTower) : void" style="text;strokeColor=none;fillColor=none;align=left;verticalAlign=top;spacingLeft=4;spacingRight=4;overflow=hidden;rotatable=0;points=[[0,0.5],[1,0.5]];portConstraint=eastwest;whiteSpace=wrap;html=1;" vertex="1" parent="nWtyFto2P3ngO1NLWRk3-172">
          <mxGeometry y="190" width="300" height="26" as="geometry" />
        </mxCell>
        <mxCell id="nWtyFto2P3ngO1NLWRk3-183" value="JetPlane" style="swimlane;fontStyle=1;align=center;verticalAlign=top;childLayout=stackLayout;horizontal=1;startSize=26;horizontalStack=0;resizeParent=1;resizeParentMax=0;resizeLast=0;collapsible=1;marginBottom=0;whiteSpace=wrap;html=1;rounded=1;fillColor=#d5e8d4;strokeColor=#82b366;" vertex="1" parent="nWtyFto2P3ngO1NLWRk3-313">
          <mxGeometry x="815" y="870" width="290" height="216" as="geometry" />
        </mxCell>
        <mxCell id="nWtyFto2P3ngO1NLWRk3-184" value="" style="line;strokeWidth=1;fillColor=none;align=left;verticalAlign=middle;spacingTop=-1;spacingLeft=3;spacingRight=3;rotatable=0;labelPosition=right;points=[];portConstraint=eastwest;strokeColor=inherit;" vertex="1" parent="nWtyFto2P3ngO1NLWRk3-183">
          <mxGeometry y="26" width="290" height="8" as="geometry" />
        </mxCell>
        <mxCell id="nWtyFto2P3ngO1NLWRk3-185" value="+ JetPlane(name : String, coordinates : Coordinates)" style="text;strokeColor=none;fillColor=none;align=left;verticalAlign=top;spacingLeft=4;spacingRight=4;overflow=hidden;rotatable=0;points=[[0,0.5],[1,0.5]];portConstraint=eastwest;whiteSpace=wrap;html=1;" vertex="1" parent="nWtyFto2P3ngO1NLWRk3-183">
          <mxGeometry y="34" width="290" height="26" as="geometry" />
        </mxCell>
        <mxCell id="nWtyFto2P3ngO1NLWRk3-186" value="+ updateConditions() : void" style="text;strokeColor=none;fillColor=none;align=left;verticalAlign=top;spacingLeft=4;spacingRight=4;overflow=hidden;rotatable=0;points=[[0,0.5],[1,0.5]];portConstraint=eastwest;whiteSpace=wrap;html=1;" vertex="1" parent="nWtyFto2P3ngO1NLWRk3-183">
          <mxGeometry y="60" width="290" height="26" as="geometry" />
        </mxCell>
        <mxCell id="nWtyFto2P3ngO1NLWRk3-187" value="+ registerTower(WeatherTower) : void" style="text;strokeColor=none;fillColor=none;align=left;verticalAlign=top;spacingLeft=4;spacingRight=4;overflow=hidden;rotatable=0;points=[[0,0.5],[1,0.5]];portConstraint=eastwest;whiteSpace=wrap;html=1;" vertex="1" parent="nWtyFto2P3ngO1NLWRk3-183">
          <mxGeometry y="86" width="290" height="26" as="geometry" />
        </mxCell>
        <mxCell id="nWtyFto2P3ngO1NLWRk3-188" value="+ land(WeatherTower) : void" style="text;strokeColor=none;fillColor=none;align=left;verticalAlign=top;spacingLeft=4;spacingRight=4;overflow=hidden;rotatable=0;points=[[0,0.5],[1,0.5]];portConstraint=eastwest;whiteSpace=wrap;html=1;" vertex="1" parent="nWtyFto2P3ngO1NLWRk3-183">
          <mxGeometry y="112" width="290" height="26" as="geometry" />
        </mxCell>
        <mxCell id="nWtyFto2P3ngO1NLWRk3-189" value="+ getCoordinates() : Coordinates" style="text;strokeColor=none;fillColor=none;align=left;verticalAlign=top;spacingLeft=4;spacingRight=4;overflow=hidden;rotatable=0;points=[[0,0.5],[1,0.5]];portConstraint=eastwest;whiteSpace=wrap;html=1;" vertex="1" parent="nWtyFto2P3ngO1NLWRk3-183">
          <mxGeometry y="138" width="290" height="26" as="geometry" />
        </mxCell>
        <mxCell id="nWtyFto2P3ngO1NLWRk3-190" value="+ getAircraftBarcode() : String" style="text;strokeColor=none;fillColor=none;align=left;verticalAlign=top;spacingLeft=4;spacingRight=4;overflow=hidden;rotatable=0;points=[[0,0.5],[1,0.5]];portConstraint=eastwest;whiteSpace=wrap;html=1;" vertex="1" parent="nWtyFto2P3ngO1NLWRk3-183">
          <mxGeometry y="164" width="290" height="26" as="geometry" />
        </mxCell>
        <mxCell id="nWtyFto2P3ngO1NLWRk3-191" value="+ speak(followTower : WeatherTower) : void" style="text;strokeColor=none;fillColor=none;align=left;verticalAlign=top;spacingLeft=4;spacingRight=4;overflow=hidden;rotatable=0;points=[[0,0.5],[1,0.5]];portConstraint=eastwest;whiteSpace=wrap;html=1;" vertex="1" parent="nWtyFto2P3ngO1NLWRk3-183">
          <mxGeometry y="190" width="290" height="26" as="geometry" />
        </mxCell>
        <mxCell id="nWtyFto2P3ngO1NLWRk3-192" value="frame" style="shape=umlFrame;whiteSpace=wrap;html=1;pointerEvents=0;" vertex="1" parent="nWtyFto2P3ngO1NLWRk3-313">
          <mxGeometry x="1204.24" y="30" width="980.76" height="460" as="geometry" />
        </mxCell>
        <mxCell id="nWtyFto2P3ngO1NLWRk3-193" value="&lt;b&gt;&lt;i&gt;UpdateStrategy&lt;/i&gt;&lt;/b&gt;" style="html=1;whiteSpace=wrap;" vertex="1" parent="nWtyFto2P3ngO1NLWRk3-313">
          <mxGeometry x="1204.240506329114" y="30" width="155.9493670886076" height="50" as="geometry" />
        </mxCell>
        <mxCell id="nWtyFto2P3ngO1NLWRk3-194" value="&lt;p style=&quot;margin:0px;margin-top:4px;text-align:center;&quot;&gt;&lt;i&gt;&amp;lt;&amp;lt;Interface&amp;gt;&amp;gt;&lt;/i&gt;&lt;br&gt;&lt;/p&gt;&lt;p style=&quot;margin:0px;margin-top:4px;text-align:center;&quot;&gt;&lt;i&gt;AircraftMoveUpdateStrategyInterface&lt;/i&gt;&lt;/p&gt;&lt;hr size=&quot;1&quot;&gt;&lt;p style=&quot;margin:0px;margin-left:4px;&quot;&gt;+ update(coordinates : Coordinates, followTower : weatherTower) : void&lt;/p&gt;" style="verticalAlign=top;align=left;overflow=fill;fontSize=12;fontFamily=Helvetica;html=1;whiteSpace=wrap;rounded=0;fillColor=#f5f5f5;strokeColor=#666666;fontColor=#333333;movable=1;resizable=1;rotatable=1;deletable=1;editable=1;locked=0;connectable=1;" vertex="1" parent="nWtyFto2P3ngO1NLWRk3-313">
          <mxGeometry x="1065" y="130" width="390" height="80" as="geometry" />
        </mxCell>
        <mxCell id="nWtyFto2P3ngO1NLWRk3-195" style="edgeStyle=orthogonalEdgeStyle;rounded=0;orthogonalLoop=1;jettySize=auto;html=1;endArrow=blockThin;endFill=1;dashed=1;dashPattern=8 8;" edge="1" parent="nWtyFto2P3ngO1NLWRk3-313" source="nWtyFto2P3ngO1NLWRk3-196" target="nWtyFto2P3ngO1NLWRk3-194">
          <mxGeometry relative="1" as="geometry" />
        </mxCell>
        <mxCell id="nWtyFto2P3ngO1NLWRk3-196" value="AircraftMoveUpdateStrategy" style="swimlane;fontStyle=1;align=center;verticalAlign=top;childLayout=stackLayout;horizontal=1;startSize=26;horizontalStack=0;resizeParent=1;resizeParentMax=0;resizeLast=0;collapsible=1;marginBottom=0;whiteSpace=wrap;html=1;rounded=1;fillColor=#dae8fc;strokeColor=#6c8ebf;movable=1;resizable=1;rotatable=1;deletable=1;editable=1;locked=0;connectable=1;" vertex="1" parent="nWtyFto2P3ngO1NLWRk3-313">
          <mxGeometry x="1585" y="127" width="320" height="86" as="geometry" />
        </mxCell>
        <mxCell id="nWtyFto2P3ngO1NLWRk3-197" value="" style="line;strokeWidth=1;fillColor=none;align=left;verticalAlign=middle;spacingTop=-1;spacingLeft=3;spacingRight=3;rotatable=0;labelPosition=right;points=[];portConstraint=eastwest;strokeColor=inherit;" vertex="1" parent="nWtyFto2P3ngO1NLWRk3-196">
          <mxGeometry y="26" width="320" height="8" as="geometry" />
        </mxCell>
        <mxCell id="nWtyFto2P3ngO1NLWRk3-198" value="+ AircraftMoveUpdateStrategy()" style="text;strokeColor=none;fillColor=none;align=left;verticalAlign=top;spacingLeft=4;spacingRight=4;overflow=hidden;rotatable=0;points=[[0,0.5],[1,0.5]];portConstraint=eastwest;whiteSpace=wrap;html=1;" vertex="1" parent="nWtyFto2P3ngO1NLWRk3-196">
          <mxGeometry y="34" width="320" height="26" as="geometry" />
        </mxCell>
        <mxCell id="nWtyFto2P3ngO1NLWRk3-199" value="+ addToCoordinates(Coordinates, int, int, int) : void" style="text;strokeColor=none;fillColor=none;align=left;verticalAlign=top;spacingLeft=4;spacingRight=4;overflow=hidden;rotatable=0;points=[[0,0.5],[1,0.5]];portConstraint=eastwest;whiteSpace=wrap;html=1;" vertex="1" parent="nWtyFto2P3ngO1NLWRk3-196">
          <mxGeometry y="60" width="320" height="26" as="geometry" />
        </mxCell>
        <mxCell id="nWtyFto2P3ngO1NLWRk3-200" style="edgeStyle=orthogonalEdgeStyle;rounded=0;orthogonalLoop=1;jettySize=auto;html=1;endArrow=block;endFill=0;" edge="1" parent="nWtyFto2P3ngO1NLWRk3-313" source="nWtyFto2P3ngO1NLWRk3-201" target="nWtyFto2P3ngO1NLWRk3-196">
          <mxGeometry relative="1" as="geometry">
            <Array as="points">
              <mxPoint x="1695" y="240" />
              <mxPoint x="1782" y="240" />
            </Array>
          </mxGeometry>
        </mxCell>
        <mxCell id="nWtyFto2P3ngO1NLWRk3-201" value="HelicopterMoveUpdateStrategy" style="swimlane;fontStyle=1;align=center;verticalAlign=top;childLayout=stackLayout;horizontal=1;startSize=26;horizontalStack=0;resizeParent=1;resizeParentMax=0;resizeLast=0;collapsible=1;marginBottom=0;whiteSpace=wrap;html=1;rounded=1;fillColor=#d5e8d4;strokeColor=#82b366;" vertex="1" parent="nWtyFto2P3ngO1NLWRk3-313">
          <mxGeometry x="1495" y="270" width="400" height="86" as="geometry" />
        </mxCell>
        <mxCell id="nWtyFto2P3ngO1NLWRk3-202" value="" style="line;strokeWidth=1;fillColor=none;align=left;verticalAlign=middle;spacingTop=-1;spacingLeft=3;spacingRight=3;rotatable=0;labelPosition=right;points=[];portConstraint=eastwest;strokeColor=inherit;" vertex="1" parent="nWtyFto2P3ngO1NLWRk3-201">
          <mxGeometry y="26" width="400" height="8" as="geometry" />
        </mxCell>
        <mxCell id="nWtyFto2P3ngO1NLWRk3-203" value="+ HelicopterMoveUpdateStrategy()" style="text;strokeColor=none;fillColor=none;align=left;verticalAlign=top;spacingLeft=4;spacingRight=4;overflow=hidden;rotatable=0;points=[[0,0.5],[1,0.5]];portConstraint=eastwest;whiteSpace=wrap;html=1;" vertex="1" parent="nWtyFto2P3ngO1NLWRk3-201">
          <mxGeometry y="34" width="400" height="26" as="geometry" />
        </mxCell>
        <mxCell id="nWtyFto2P3ngO1NLWRk3-204" value="+ update(coordinates : Coordinates, followTower : WeatherTower) : void" style="text;strokeColor=none;fillColor=none;align=left;verticalAlign=top;spacingLeft=4;spacingRight=4;overflow=hidden;rotatable=0;points=[[0,0.5],[1,0.5]];portConstraint=eastwest;whiteSpace=wrap;html=1;" vertex="1" parent="nWtyFto2P3ngO1NLWRk3-201">
          <mxGeometry y="60" width="400" height="26" as="geometry" />
        </mxCell>
        <mxCell id="nWtyFto2P3ngO1NLWRk3-205" style="edgeStyle=orthogonalEdgeStyle;rounded=0;orthogonalLoop=1;jettySize=auto;html=1;endArrow=block;endFill=0;" edge="1" parent="nWtyFto2P3ngO1NLWRk3-313" source="nWtyFto2P3ngO1NLWRk3-206" target="nWtyFto2P3ngO1NLWRk3-196">
          <mxGeometry relative="1" as="geometry">
            <Array as="points">
              <mxPoint x="1460" y="240" />
              <mxPoint x="1782" y="240" />
            </Array>
          </mxGeometry>
        </mxCell>
        <mxCell id="nWtyFto2P3ngO1NLWRk3-206" value="BaloonMoveUpdateStrategy" style="swimlane;fontStyle=1;align=center;verticalAlign=top;childLayout=stackLayout;horizontal=1;startSize=26;horizontalStack=0;resizeParent=1;resizeParentMax=0;resizeLast=0;collapsible=1;marginBottom=0;whiteSpace=wrap;html=1;rounded=1;fillColor=#d5e8d4;strokeColor=#82b366;" vertex="1" parent="nWtyFto2P3ngO1NLWRk3-313">
          <mxGeometry x="1255" y="380" width="410" height="86" as="geometry" />
        </mxCell>
        <mxCell id="nWtyFto2P3ngO1NLWRk3-207" value="" style="line;strokeWidth=1;fillColor=none;align=left;verticalAlign=middle;spacingTop=-1;spacingLeft=3;spacingRight=3;rotatable=0;labelPosition=right;points=[];portConstraint=eastwest;strokeColor=inherit;" vertex="1" parent="nWtyFto2P3ngO1NLWRk3-206">
          <mxGeometry y="26" width="410" height="8" as="geometry" />
        </mxCell>
        <mxCell id="nWtyFto2P3ngO1NLWRk3-208" value="+ BaloonMoveUpdateStrategy()" style="text;strokeColor=none;fillColor=none;align=left;verticalAlign=top;spacingLeft=4;spacingRight=4;overflow=hidden;rotatable=0;points=[[0,0.5],[1,0.5]];portConstraint=eastwest;whiteSpace=wrap;html=1;" vertex="1" parent="nWtyFto2P3ngO1NLWRk3-206">
          <mxGeometry y="34" width="410" height="26" as="geometry" />
        </mxCell>
        <mxCell id="nWtyFto2P3ngO1NLWRk3-209" value="+ update(coordinates : Coordinates, followTower : WeatherTower) : void" style="text;strokeColor=none;fillColor=none;align=left;verticalAlign=top;spacingLeft=4;spacingRight=4;overflow=hidden;rotatable=0;points=[[0,0.5],[1,0.5]];portConstraint=eastwest;whiteSpace=wrap;html=1;" vertex="1" parent="nWtyFto2P3ngO1NLWRk3-206">
          <mxGeometry y="60" width="410" height="26" as="geometry" />
        </mxCell>
        <mxCell id="nWtyFto2P3ngO1NLWRk3-210" style="edgeStyle=orthogonalEdgeStyle;rounded=0;orthogonalLoop=1;jettySize=auto;html=1;endArrow=block;endFill=0;" edge="1" parent="nWtyFto2P3ngO1NLWRk3-313" source="nWtyFto2P3ngO1NLWRk3-211" target="nWtyFto2P3ngO1NLWRk3-196">
          <mxGeometry relative="1" as="geometry">
            <Array as="points">
              <mxPoint x="1935" y="240" />
              <mxPoint x="1782" y="240" />
            </Array>
          </mxGeometry>
        </mxCell>
        <mxCell id="nWtyFto2P3ngO1NLWRk3-211" value="JetPlaneMoveUpdateStrategy" style="swimlane;fontStyle=1;align=center;verticalAlign=top;childLayout=stackLayout;horizontal=1;startSize=26;horizontalStack=0;resizeParent=1;resizeParentMax=0;resizeLast=0;collapsible=1;marginBottom=0;whiteSpace=wrap;html=1;rounded=1;fillColor=#d5e8d4;strokeColor=#82b366;" vertex="1" parent="nWtyFto2P3ngO1NLWRk3-313">
          <mxGeometry x="1735" y="380" width="399.49" height="86" as="geometry" />
        </mxCell>
        <mxCell id="nWtyFto2P3ngO1NLWRk3-212" value="" style="line;strokeWidth=1;fillColor=none;align=left;verticalAlign=middle;spacingTop=-1;spacingLeft=3;spacingRight=3;rotatable=0;labelPosition=right;points=[];portConstraint=eastwest;strokeColor=inherit;" vertex="1" parent="nWtyFto2P3ngO1NLWRk3-211">
          <mxGeometry y="26" width="399.49" height="8" as="geometry" />
        </mxCell>
        <mxCell id="nWtyFto2P3ngO1NLWRk3-213" value="+ JetPlaneMoveUpdateStrategy()" style="text;strokeColor=none;fillColor=none;align=left;verticalAlign=top;spacingLeft=4;spacingRight=4;overflow=hidden;rotatable=0;points=[[0,0.5],[1,0.5]];portConstraint=eastwest;whiteSpace=wrap;html=1;" vertex="1" parent="nWtyFto2P3ngO1NLWRk3-211">
          <mxGeometry y="34" width="399.49" height="26" as="geometry" />
        </mxCell>
        <mxCell id="nWtyFto2P3ngO1NLWRk3-214" value="+ update(coordinates : Coordinates, followTower : WeatherTower) : void" style="text;strokeColor=none;fillColor=none;align=left;verticalAlign=top;spacingLeft=4;spacingRight=4;overflow=hidden;rotatable=0;points=[[0,0.5],[1,0.5]];portConstraint=eastwest;whiteSpace=wrap;html=1;" vertex="1" parent="nWtyFto2P3ngO1NLWRk3-211">
          <mxGeometry y="60" width="399.49" height="26" as="geometry" />
        </mxCell>
        <mxCell id="nWtyFto2P3ngO1NLWRk3-215" style="edgeStyle=orthogonalEdgeStyle;rounded=0;orthogonalLoop=1;jettySize=auto;html=1;endArrow=diamondThin;endFill=1;" edge="1" parent="nWtyFto2P3ngO1NLWRk3-313" source="nWtyFto2P3ngO1NLWRk3-194" target="nWtyFto2P3ngO1NLWRk3-294">
          <mxGeometry relative="1" as="geometry">
            <Array as="points">
              <mxPoint x="605" y="190" />
            </Array>
            <mxPoint x="605" y="220" as="targetPoint" />
          </mxGeometry>
        </mxCell>
        <mxCell id="nWtyFto2P3ngO1NLWRk3-217" value="" style="group" vertex="1" connectable="0" parent="nWtyFto2P3ngO1NLWRk3-313">
          <mxGeometry x="1105" y="570" width="1080" height="650" as="geometry" />
        </mxCell>
        <mxCell id="nWtyFto2P3ngO1NLWRk3-218" value="frame" style="shape=umlFrame;whiteSpace=wrap;html=1;pointerEvents=0;" vertex="1" parent="nWtyFto2P3ngO1NLWRk3-217">
          <mxGeometry x="93.88867924528303" width="986.111320754717" height="650" as="geometry" />
        </mxCell>
        <mxCell id="nWtyFto2P3ngO1NLWRk3-219" value="&lt;b&gt;&lt;i&gt;MessageBuilder&lt;/i&gt;&lt;/b&gt;" style="html=1;whiteSpace=wrap;" vertex="1" parent="nWtyFto2P3ngO1NLWRk3-217">
          <mxGeometry x="93.89" width="147.54" height="50" as="geometry" />
        </mxCell>
        <mxCell id="nWtyFto2P3ngO1NLWRk3-220" value="&lt;p style=&quot;margin:0px;margin-top:4px;text-align:center;&quot;&gt;&lt;i&gt;&amp;lt;&amp;lt;Interface&amp;gt;&amp;gt;&lt;/i&gt;&lt;br&gt;&lt;/p&gt;&lt;p style=&quot;margin:0px;margin-top:4px;text-align:center;&quot;&gt;&lt;i&gt;MessageBuilderInterface&lt;/i&gt;&lt;/p&gt;&lt;hr size=&quot;1&quot;&gt;&lt;p style=&quot;margin:0px;margin-left:4px;&quot;&gt;+ buildMessage(String weather) : void&lt;br&gt;+ buildAircraftBarcode() : String&lt;/p&gt;" style="verticalAlign=top;align=left;overflow=fill;fontSize=12;fontFamily=Helvetica;html=1;whiteSpace=wrap;rounded=0;fillColor=#f5f5f5;strokeColor=#666666;fontColor=#333333;movable=1;resizable=1;rotatable=1;deletable=1;editable=1;locked=0;connectable=1;" vertex="1" parent="nWtyFto2P3ngO1NLWRk3-217">
          <mxGeometry x="50.943396226415096" y="152.05357142857144" width="213.96226415094338" height="106.78571428571429" as="geometry" />
        </mxCell>
        <mxCell id="nWtyFto2P3ngO1NLWRk3-221" style="edgeStyle=orthogonalEdgeStyle;rounded=0;orthogonalLoop=1;jettySize=auto;html=1;dashed=1;dashPattern=12 12;endArrow=block;endFill=1;" edge="1" parent="nWtyFto2P3ngO1NLWRk3-217" source="nWtyFto2P3ngO1NLWRk3-222" target="nWtyFto2P3ngO1NLWRk3-220">
          <mxGeometry relative="1" as="geometry" />
        </mxCell>
        <mxCell id="nWtyFto2P3ngO1NLWRk3-222" value="AircraftMessageBuilder" style="swimlane;fontStyle=1;align=center;verticalAlign=top;childLayout=stackLayout;horizontal=1;startSize=26;horizontalStack=0;resizeParent=1;resizeParentMax=0;resizeLast=0;collapsible=1;marginBottom=0;whiteSpace=wrap;html=1;rounded=1;fillColor=#dae8fc;strokeColor=#6c8ebf;movable=1;resizable=1;rotatable=1;deletable=1;editable=1;locked=0;connectable=1;" vertex="1" parent="nWtyFto2P3ngO1NLWRk3-217">
          <mxGeometry x="309.99905660377357" y="142.54" width="346.4150943396226" height="186.17857142857144" as="geometry" />
        </mxCell>
        <mxCell id="nWtyFto2P3ngO1NLWRk3-223" value="# barcodeBuilder : AircraftBarcodeBuilder" style="text;strokeColor=none;fillColor=none;align=left;verticalAlign=top;spacingLeft=4;spacingRight=4;overflow=hidden;rotatable=0;points=[[0,0.5],[1,0.5]];portConstraint=eastwest;whiteSpace=wrap;html=1;" vertex="1" parent="nWtyFto2P3ngO1NLWRk3-222">
          <mxGeometry y="26" width="346.4150943396226" height="30.17857142857143" as="geometry" />
        </mxCell>
        <mxCell id="nWtyFto2P3ngO1NLWRk3-224" value="# coordinatesMessageBuilder : CoordinatesMessageBuilder" style="text;strokeColor=none;fillColor=none;align=left;verticalAlign=top;spacingLeft=4;spacingRight=4;overflow=hidden;rotatable=0;points=[[0,0.5],[1,0.5]];portConstraint=eastwest;whiteSpace=wrap;html=1;" vertex="1" parent="nWtyFto2P3ngO1NLWRk3-222">
          <mxGeometry y="56.17857142857143" width="346.4150943396226" height="30.17857142857143" as="geometry" />
        </mxCell>
        <mxCell id="nWtyFto2P3ngO1NLWRk3-225" value="" style="line;strokeWidth=1;fillColor=none;align=left;verticalAlign=middle;spacingTop=-1;spacingLeft=3;spacingRight=3;rotatable=0;labelPosition=right;points=[];portConstraint=eastwest;strokeColor=inherit;" vertex="1" parent="nWtyFto2P3ngO1NLWRk3-222">
          <mxGeometry y="86.35714285714286" width="346.4150943396226" height="9.285714285714286" as="geometry" />
        </mxCell>
        <mxCell id="nWtyFto2P3ngO1NLWRk3-226" value="# &lt;u&gt;buildReportMessageByWeather(weather : String)&lt;/u&gt; : String" style="text;strokeColor=none;fillColor=none;align=left;verticalAlign=top;spacingLeft=4;spacingRight=4;overflow=hidden;rotatable=0;points=[[0,0.5],[1,0.5]];portConstraint=eastwest;whiteSpace=wrap;html=1;" vertex="1" parent="nWtyFto2P3ngO1NLWRk3-222">
          <mxGeometry y="95.64285714285715" width="346.4150943396226" height="30.17857142857143" as="geometry" />
        </mxCell>
        <mxCell id="nWtyFto2P3ngO1NLWRk3-227" value="+&amp;nbsp;&lt;u&gt;buildMessage(weather : String)&lt;/u&gt;&amp;nbsp;: String" style="text;strokeColor=none;fillColor=none;align=left;verticalAlign=top;spacingLeft=4;spacingRight=4;overflow=hidden;rotatable=0;points=[[0,0.5],[1,0.5]];portConstraint=eastwest;whiteSpace=wrap;html=1;" vertex="1" parent="nWtyFto2P3ngO1NLWRk3-222">
          <mxGeometry y="125.82142857142858" width="346.4150943396226" height="30.17857142857143" as="geometry" />
        </mxCell>
        <mxCell id="nWtyFto2P3ngO1NLWRk3-228" value="+ buildAircraftBarcode() : String" style="text;strokeColor=none;fillColor=none;align=left;verticalAlign=top;spacingLeft=4;spacingRight=4;overflow=hidden;rotatable=0;points=[[0,0.5],[1,0.5]];portConstraint=eastwest;whiteSpace=wrap;html=1;" vertex="1" parent="nWtyFto2P3ngO1NLWRk3-222">
          <mxGeometry y="156" width="346.4150943396226" height="30.17857142857143" as="geometry" />
        </mxCell>
        <mxCell id="nWtyFto2P3ngO1NLWRk3-229" style="edgeStyle=orthogonalEdgeStyle;rounded=0;orthogonalLoop=1;jettySize=auto;html=1;endArrow=diamondThin;endFill=1;" edge="1" parent="nWtyFto2P3ngO1NLWRk3-217" source="nWtyFto2P3ngO1NLWRk3-230" target="nWtyFto2P3ngO1NLWRk3-222">
          <mxGeometry relative="1" as="geometry" />
        </mxCell>
        <mxCell id="nWtyFto2P3ngO1NLWRk3-230" value="AircraftBarcodeBuilder" style="swimlane;fontStyle=1;align=center;verticalAlign=top;childLayout=stackLayout;horizontal=1;startSize=26;horizontalStack=0;resizeParent=1;resizeParentMax=0;resizeLast=0;collapsible=1;marginBottom=0;whiteSpace=wrap;html=1;rounded=1;fillColor=#d5e8d4;strokeColor=#82b366;movable=1;resizable=1;rotatable=1;deletable=1;editable=1;locked=0;connectable=1;" vertex="1" parent="nWtyFto2P3ngO1NLWRk3-217">
          <mxGeometry x="703.0188679245283" y="22.05357142857143" width="346.4150943396226" height="125.82142857142858" as="geometry" />
        </mxCell>
        <mxCell id="nWtyFto2P3ngO1NLWRk3-231" value="- code : String" style="text;strokeColor=none;fillColor=none;align=left;verticalAlign=top;spacingLeft=4;spacingRight=4;overflow=hidden;rotatable=0;points=[[0,0.5],[1,0.5]];portConstraint=eastwest;whiteSpace=wrap;html=1;" vertex="1" parent="nWtyFto2P3ngO1NLWRk3-230">
          <mxGeometry y="26" width="346.4150943396226" height="30.17857142857143" as="geometry" />
        </mxCell>
        <mxCell id="nWtyFto2P3ngO1NLWRk3-232" value="" style="line;strokeWidth=1;fillColor=none;align=left;verticalAlign=middle;spacingTop=-1;spacingLeft=3;spacingRight=3;rotatable=0;labelPosition=right;points=[];portConstraint=eastwest;strokeColor=inherit;" vertex="1" parent="nWtyFto2P3ngO1NLWRk3-230">
          <mxGeometry y="56.17857142857143" width="346.4150943396226" height="9.285714285714286" as="geometry" />
        </mxCell>
        <mxCell id="nWtyFto2P3ngO1NLWRk3-233" value="+ AircraftBarcodeBuilder(type : String, name : String, id : long)" style="text;strokeColor=none;fillColor=none;align=left;verticalAlign=top;spacingLeft=4;spacingRight=4;overflow=hidden;rotatable=0;points=[[0,0.5],[1,0.5]];portConstraint=eastwest;whiteSpace=wrap;html=1;" vertex="1" parent="nWtyFto2P3ngO1NLWRk3-230">
          <mxGeometry y="65.46428571428572" width="346.4150943396226" height="30.17857142857143" as="geometry" />
        </mxCell>
        <mxCell id="nWtyFto2P3ngO1NLWRk3-234" value="+ getCode() : void&amp;nbsp;" style="text;strokeColor=none;fillColor=none;align=left;verticalAlign=top;spacingLeft=4;spacingRight=4;overflow=hidden;rotatable=0;points=[[0,0.5],[1,0.5]];portConstraint=eastwest;whiteSpace=wrap;html=1;" vertex="1" parent="nWtyFto2P3ngO1NLWRk3-230">
          <mxGeometry y="95.64285714285715" width="346.4150943396226" height="30.17857142857143" as="geometry" />
        </mxCell>
        <mxCell id="nWtyFto2P3ngO1NLWRk3-235" style="edgeStyle=orthogonalEdgeStyle;rounded=0;orthogonalLoop=1;jettySize=auto;html=1;endArrow=diamondThin;endFill=1;" edge="1" parent="nWtyFto2P3ngO1NLWRk3-217" source="nWtyFto2P3ngO1NLWRk3-236" target="nWtyFto2P3ngO1NLWRk3-222">
          <mxGeometry relative="1" as="geometry" />
        </mxCell>
        <mxCell id="nWtyFto2P3ngO1NLWRk3-236" value="CoordinatesMessageBuilder" style="swimlane;fontStyle=1;align=center;verticalAlign=top;childLayout=stackLayout;horizontal=1;startSize=26;horizontalStack=0;resizeParent=1;resizeParentMax=0;resizeLast=0;collapsible=1;marginBottom=0;whiteSpace=wrap;html=1;rounded=1;fillColor=#d5e8d4;strokeColor=#82b366;movable=1;resizable=1;rotatable=1;deletable=1;editable=1;locked=0;connectable=1;" vertex="1" parent="nWtyFto2P3ngO1NLWRk3-217">
          <mxGeometry x="703.0188679245283" y="180.00357142857138" width="346.4150943396226" height="186.17857142857144" as="geometry" />
        </mxCell>
        <mxCell id="nWtyFto2P3ngO1NLWRk3-237" value="- code : String" style="text;strokeColor=none;fillColor=none;align=left;verticalAlign=top;spacingLeft=4;spacingRight=4;overflow=hidden;rotatable=0;points=[[0,0.5],[1,0.5]];portConstraint=eastwest;whiteSpace=wrap;html=1;" vertex="1" parent="nWtyFto2P3ngO1NLWRk3-236">
          <mxGeometry y="26" width="346.4150943396226" height="30.17857142857143" as="geometry" />
        </mxCell>
        <mxCell id="nWtyFto2P3ngO1NLWRk3-238" value="" style="line;strokeWidth=1;fillColor=none;align=left;verticalAlign=middle;spacingTop=-1;spacingLeft=3;spacingRight=3;rotatable=0;labelPosition=right;points=[];portConstraint=eastwest;strokeColor=inherit;" vertex="1" parent="nWtyFto2P3ngO1NLWRk3-236">
          <mxGeometry y="56.17857142857143" width="346.4150943396226" height="9.285714285714286" as="geometry" />
        </mxCell>
        <mxCell id="nWtyFto2P3ngO1NLWRk3-239" value="+ CoordinatesMessageBuilder(coordinates : Coordinates)" style="text;strokeColor=none;fillColor=none;align=left;verticalAlign=top;spacingLeft=4;spacingRight=4;overflow=hidden;rotatable=0;points=[[0,0.5],[1,0.5]];portConstraint=eastwest;whiteSpace=wrap;html=1;" vertex="1" parent="nWtyFto2P3ngO1NLWRk3-236">
          <mxGeometry y="65.46428571428572" width="346.4150943396226" height="30.17857142857143" as="geometry" />
        </mxCell>
        <mxCell id="nWtyFto2P3ngO1NLWRk3-240" value="+ setCode(coordinates : Coordinates) : void" style="text;strokeColor=none;fillColor=none;align=left;verticalAlign=top;spacingLeft=4;spacingRight=4;overflow=hidden;rotatable=0;points=[[0,0.5],[1,0.5]];portConstraint=eastwest;whiteSpace=wrap;html=1;" vertex="1" parent="nWtyFto2P3ngO1NLWRk3-236">
          <mxGeometry y="95.64285714285715" width="346.4150943396226" height="30.17857142857143" as="geometry" />
        </mxCell>
        <mxCell id="nWtyFto2P3ngO1NLWRk3-241" value="+ getCode() : void&amp;nbsp;" style="text;strokeColor=none;fillColor=none;align=left;verticalAlign=top;spacingLeft=4;spacingRight=4;overflow=hidden;rotatable=0;points=[[0,0.5],[1,0.5]];portConstraint=eastwest;whiteSpace=wrap;html=1;" vertex="1" parent="nWtyFto2P3ngO1NLWRk3-236">
          <mxGeometry y="125.82142857142858" width="346.4150943396226" height="30.17857142857143" as="geometry" />
        </mxCell>
        <mxCell id="nWtyFto2P3ngO1NLWRk3-242" value="+ buildCoordinatesForm(coordinates : Coordinates)" style="text;strokeColor=none;fillColor=none;align=left;verticalAlign=top;spacingLeft=4;spacingRight=4;overflow=hidden;rotatable=0;points=[[0,0.5],[1,0.5]];portConstraint=eastwest;whiteSpace=wrap;html=1;" vertex="1" parent="nWtyFto2P3ngO1NLWRk3-236">
          <mxGeometry y="156" width="346.4150943396226" height="30.17857142857143" as="geometry" />
        </mxCell>
        <mxCell id="nWtyFto2P3ngO1NLWRk3-243" style="edgeStyle=orthogonalEdgeStyle;rounded=0;orthogonalLoop=1;jettySize=auto;html=1;endArrow=block;endFill=0;" edge="1" parent="nWtyFto2P3ngO1NLWRk3-217" source="nWtyFto2P3ngO1NLWRk3-244" target="nWtyFto2P3ngO1NLWRk3-222">
          <mxGeometry relative="1" as="geometry" />
        </mxCell>
        <mxCell id="nWtyFto2P3ngO1NLWRk3-244" value="BaloonMessageBuilder" style="swimlane;fontStyle=1;align=center;verticalAlign=top;childLayout=stackLayout;horizontal=1;startSize=26;horizontalStack=0;resizeParent=1;resizeParentMax=0;resizeLast=0;collapsible=1;marginBottom=0;whiteSpace=wrap;html=1;rounded=1;fillColor=#d5e8d4;strokeColor=#82b366;" vertex="1" parent="nWtyFto2P3ngO1NLWRk3-217">
          <mxGeometry x="110" y="450" width="290" height="112" as="geometry" />
        </mxCell>
        <mxCell id="nWtyFto2P3ngO1NLWRk3-245" value="" style="line;strokeWidth=1;fillColor=none;align=left;verticalAlign=middle;spacingTop=-1;spacingLeft=3;spacingRight=3;rotatable=0;labelPosition=right;points=[];portConstraint=eastwest;strokeColor=inherit;" vertex="1" parent="nWtyFto2P3ngO1NLWRk3-244">
          <mxGeometry y="26" width="290" height="8" as="geometry" />
        </mxCell>
        <mxCell id="nWtyFto2P3ngO1NLWRk3-246" value="+ BaloonMessageBuilder()" style="text;strokeColor=none;fillColor=none;align=left;verticalAlign=top;spacingLeft=4;spacingRight=4;overflow=hidden;rotatable=0;points=[[0,0.5],[1,0.5]];portConstraint=eastwest;whiteSpace=wrap;html=1;" vertex="1" parent="nWtyFto2P3ngO1NLWRk3-244">
          <mxGeometry y="34" width="290" height="26" as="geometry" />
        </mxCell>
        <mxCell id="nWtyFto2P3ngO1NLWRk3-247" value="# buildReportMessageByWeather(weather : String)" style="text;strokeColor=none;fillColor=none;align=left;verticalAlign=top;spacingLeft=4;spacingRight=4;overflow=hidden;rotatable=0;points=[[0,0.5],[1,0.5]];portConstraint=eastwest;whiteSpace=wrap;html=1;" vertex="1" parent="nWtyFto2P3ngO1NLWRk3-244">
          <mxGeometry y="60" width="290" height="26" as="geometry" />
        </mxCell>
        <mxCell id="nWtyFto2P3ngO1NLWRk3-248" value="+ buildMessage(weather : String) : String" style="text;strokeColor=none;fillColor=none;align=left;verticalAlign=top;spacingLeft=4;spacingRight=4;overflow=hidden;rotatable=0;points=[[0,0.5],[1,0.5]];portConstraint=eastwest;whiteSpace=wrap;html=1;" vertex="1" parent="nWtyFto2P3ngO1NLWRk3-244">
          <mxGeometry y="86" width="290" height="26" as="geometry" />
        </mxCell>
        <mxCell id="nWtyFto2P3ngO1NLWRk3-249" style="edgeStyle=orthogonalEdgeStyle;rounded=0;orthogonalLoop=1;jettySize=auto;html=1;endArrow=block;endFill=0;" edge="1" parent="nWtyFto2P3ngO1NLWRk3-217" source="nWtyFto2P3ngO1NLWRk3-250" target="nWtyFto2P3ngO1NLWRk3-222">
          <mxGeometry relative="1" as="geometry" />
        </mxCell>
        <mxCell id="nWtyFto2P3ngO1NLWRk3-250" value="HelicopterMessageBuilder" style="swimlane;fontStyle=1;align=center;verticalAlign=top;childLayout=stackLayout;horizontal=1;startSize=26;horizontalStack=0;resizeParent=1;resizeParentMax=0;resizeLast=0;collapsible=1;marginBottom=0;whiteSpace=wrap;html=1;rounded=1;fillColor=#d5e8d4;strokeColor=#82b366;" vertex="1" parent="nWtyFto2P3ngO1NLWRk3-217">
          <mxGeometry x="440" y="450" width="290" height="112" as="geometry" />
        </mxCell>
        <mxCell id="nWtyFto2P3ngO1NLWRk3-251" value="" style="line;strokeWidth=1;fillColor=none;align=left;verticalAlign=middle;spacingTop=-1;spacingLeft=3;spacingRight=3;rotatable=0;labelPosition=right;points=[];portConstraint=eastwest;strokeColor=inherit;" vertex="1" parent="nWtyFto2P3ngO1NLWRk3-250">
          <mxGeometry y="26" width="290" height="8" as="geometry" />
        </mxCell>
        <mxCell id="nWtyFto2P3ngO1NLWRk3-252" value="+ HelicopterMessageBuilder()" style="text;strokeColor=none;fillColor=none;align=left;verticalAlign=top;spacingLeft=4;spacingRight=4;overflow=hidden;rotatable=0;points=[[0,0.5],[1,0.5]];portConstraint=eastwest;whiteSpace=wrap;html=1;" vertex="1" parent="nWtyFto2P3ngO1NLWRk3-250">
          <mxGeometry y="34" width="290" height="26" as="geometry" />
        </mxCell>
        <mxCell id="nWtyFto2P3ngO1NLWRk3-253" value="# buildReportMessageByWeather(weather : String)" style="text;strokeColor=none;fillColor=none;align=left;verticalAlign=top;spacingLeft=4;spacingRight=4;overflow=hidden;rotatable=0;points=[[0,0.5],[1,0.5]];portConstraint=eastwest;whiteSpace=wrap;html=1;" vertex="1" parent="nWtyFto2P3ngO1NLWRk3-250">
          <mxGeometry y="60" width="290" height="26" as="geometry" />
        </mxCell>
        <mxCell id="nWtyFto2P3ngO1NLWRk3-254" value="+ buildMessage(weather : String) : String" style="text;strokeColor=none;fillColor=none;align=left;verticalAlign=top;spacingLeft=4;spacingRight=4;overflow=hidden;rotatable=0;points=[[0,0.5],[1,0.5]];portConstraint=eastwest;whiteSpace=wrap;html=1;" vertex="1" parent="nWtyFto2P3ngO1NLWRk3-250">
          <mxGeometry y="86" width="290" height="26" as="geometry" />
        </mxCell>
        <mxCell id="nWtyFto2P3ngO1NLWRk3-255" style="edgeStyle=orthogonalEdgeStyle;rounded=0;orthogonalLoop=1;jettySize=auto;html=1;endArrow=block;endFill=0;" edge="1" parent="nWtyFto2P3ngO1NLWRk3-217" source="nWtyFto2P3ngO1NLWRk3-256" target="nWtyFto2P3ngO1NLWRk3-222">
          <mxGeometry relative="1" as="geometry">
            <Array as="points">
              <mxPoint x="904" y="390" />
              <mxPoint x="483" y="390" />
            </Array>
          </mxGeometry>
        </mxCell>
        <mxCell id="nWtyFto2P3ngO1NLWRk3-256" value="JetPlaneMessageBuilder" style="swimlane;fontStyle=1;align=center;verticalAlign=top;childLayout=stackLayout;horizontal=1;startSize=26;horizontalStack=0;resizeParent=1;resizeParentMax=0;resizeLast=0;collapsible=1;marginBottom=0;whiteSpace=wrap;html=1;rounded=1;fillColor=#d5e8d4;strokeColor=#82b366;" vertex="1" parent="nWtyFto2P3ngO1NLWRk3-217">
          <mxGeometry x="759.4299999999998" y="450" width="290" height="112" as="geometry" />
        </mxCell>
        <mxCell id="nWtyFto2P3ngO1NLWRk3-257" value="" style="line;strokeWidth=1;fillColor=none;align=left;verticalAlign=middle;spacingTop=-1;spacingLeft=3;spacingRight=3;rotatable=0;labelPosition=right;points=[];portConstraint=eastwest;strokeColor=inherit;" vertex="1" parent="nWtyFto2P3ngO1NLWRk3-256">
          <mxGeometry y="26" width="290" height="8" as="geometry" />
        </mxCell>
        <mxCell id="nWtyFto2P3ngO1NLWRk3-258" value="+ JetPlaneMessageBuilder()" style="text;strokeColor=none;fillColor=none;align=left;verticalAlign=top;spacingLeft=4;spacingRight=4;overflow=hidden;rotatable=0;points=[[0,0.5],[1,0.5]];portConstraint=eastwest;whiteSpace=wrap;html=1;" vertex="1" parent="nWtyFto2P3ngO1NLWRk3-256">
          <mxGeometry y="34" width="290" height="26" as="geometry" />
        </mxCell>
        <mxCell id="nWtyFto2P3ngO1NLWRk3-259" value="# buildReportMessageByWeather(weather : String)" style="text;strokeColor=none;fillColor=none;align=left;verticalAlign=top;spacingLeft=4;spacingRight=4;overflow=hidden;rotatable=0;points=[[0,0.5],[1,0.5]];portConstraint=eastwest;whiteSpace=wrap;html=1;" vertex="1" parent="nWtyFto2P3ngO1NLWRk3-256">
          <mxGeometry y="60" width="290" height="26" as="geometry" />
        </mxCell>
        <mxCell id="nWtyFto2P3ngO1NLWRk3-260" value="+ buildMessage(weather : String) : String" style="text;strokeColor=none;fillColor=none;align=left;verticalAlign=top;spacingLeft=4;spacingRight=4;overflow=hidden;rotatable=0;points=[[0,0.5],[1,0.5]];portConstraint=eastwest;whiteSpace=wrap;html=1;" vertex="1" parent="nWtyFto2P3ngO1NLWRk3-256">
          <mxGeometry y="86" width="290" height="26" as="geometry" />
        </mxCell>
        <mxCell id="nWtyFto2P3ngO1NLWRk3-261" style="edgeStyle=orthogonalEdgeStyle;rounded=0;orthogonalLoop=1;jettySize=auto;html=1;endArrow=diamondThin;endFill=1;" edge="1" parent="nWtyFto2P3ngO1NLWRk3-313" source="nWtyFto2P3ngO1NLWRk3-220" target="nWtyFto2P3ngO1NLWRk3-294">
          <mxGeometry relative="1" as="geometry">
            <Array as="points">
              <mxPoint x="1075" y="734" />
              <mxPoint x="1075" y="610" />
            </Array>
            <mxPoint x="790" y="610" as="targetPoint" />
          </mxGeometry>
        </mxCell>
        <mxCell id="nWtyFto2P3ngO1NLWRk3-262" value="Coordinates" style="swimlane;fontStyle=1;align=center;verticalAlign=top;childLayout=stackLayout;horizontal=1;startSize=26;horizontalStack=0;resizeParent=1;resizeParentMax=0;resizeLast=0;collapsible=1;marginBottom=0;whiteSpace=wrap;html=1;rounded=1;fillColor=#d5e8d4;strokeColor=#82b366;movable=1;resizable=1;rotatable=1;deletable=1;editable=1;locked=0;connectable=1;" vertex="1" parent="nWtyFto2P3ngO1NLWRk3-313">
          <mxGeometry x="865" y="232" width="300" height="320" as="geometry" />
        </mxCell>
        <mxCell id="nWtyFto2P3ngO1NLWRk3-263" value="- longitude : int" style="text;strokeColor=none;fillColor=none;align=left;verticalAlign=top;spacingLeft=4;spacingRight=4;overflow=hidden;rotatable=0;points=[[0,0.5],[1,0.5]];portConstraint=eastwest;whiteSpace=wrap;html=1;" vertex="1" parent="nWtyFto2P3ngO1NLWRk3-262">
          <mxGeometry y="26" width="300" height="26" as="geometry" />
        </mxCell>
        <mxCell id="nWtyFto2P3ngO1NLWRk3-264" value="- latitude : int" style="text;strokeColor=none;fillColor=none;align=left;verticalAlign=top;spacingLeft=4;spacingRight=4;overflow=hidden;rotatable=0;points=[[0,0.5],[1,0.5]];portConstraint=eastwest;whiteSpace=wrap;html=1;" vertex="1" parent="nWtyFto2P3ngO1NLWRk3-262">
          <mxGeometry y="52" width="300" height="26" as="geometry" />
        </mxCell>
        <mxCell id="nWtyFto2P3ngO1NLWRk3-265" value="- height : int" style="text;strokeColor=none;fillColor=none;align=left;verticalAlign=top;spacingLeft=4;spacingRight=4;overflow=hidden;rotatable=0;points=[[0,0.5],[1,0.5]];portConstraint=eastwest;whiteSpace=wrap;html=1;" vertex="1" parent="nWtyFto2P3ngO1NLWRk3-262">
          <mxGeometry y="78" width="300" height="26" as="geometry" />
        </mxCell>
        <mxCell id="nWtyFto2P3ngO1NLWRk3-266" value="- heightLimit : int" style="text;strokeColor=none;fillColor=none;align=left;verticalAlign=top;spacingLeft=4;spacingRight=4;overflow=hidden;rotatable=0;points=[[0,0.5],[1,0.5]];portConstraint=eastwest;whiteSpace=wrap;html=1;" vertex="1" parent="nWtyFto2P3ngO1NLWRk3-262">
          <mxGeometry y="104" width="300" height="26" as="geometry" />
        </mxCell>
        <mxCell id="nWtyFto2P3ngO1NLWRk3-267" value="" style="line;strokeWidth=1;fillColor=none;align=left;verticalAlign=middle;spacingTop=-1;spacingLeft=3;spacingRight=3;rotatable=0;labelPosition=right;points=[];portConstraint=eastwest;strokeColor=inherit;" vertex="1" parent="nWtyFto2P3ngO1NLWRk3-262">
          <mxGeometry y="130" width="300" height="8" as="geometry" />
        </mxCell>
        <mxCell id="nWtyFto2P3ngO1NLWRk3-268" value="+ Coordinate(longitude : int, latitude : int, height : int)" style="text;strokeColor=none;fillColor=none;align=left;verticalAlign=top;spacingLeft=4;spacingRight=4;overflow=hidden;rotatable=0;points=[[0,0.5],[1,0.5]];portConstraint=eastwest;whiteSpace=wrap;html=1;" vertex="1" parent="nWtyFto2P3ngO1NLWRk3-262">
          <mxGeometry y="138" width="300" height="26" as="geometry" />
        </mxCell>
        <mxCell id="nWtyFto2P3ngO1NLWRk3-269" value="+ setLongitute(longitude : int) : void" style="text;strokeColor=none;fillColor=none;align=left;verticalAlign=top;spacingLeft=4;spacingRight=4;overflow=hidden;rotatable=0;points=[[0,0.5],[1,0.5]];portConstraint=eastwest;whiteSpace=wrap;html=1;" vertex="1" parent="nWtyFto2P3ngO1NLWRk3-262">
          <mxGeometry y="164" width="300" height="26" as="geometry" />
        </mxCell>
        <mxCell id="nWtyFto2P3ngO1NLWRk3-270" value="+ setLatitude(latitude : int) : void" style="text;strokeColor=none;fillColor=none;align=left;verticalAlign=top;spacingLeft=4;spacingRight=4;overflow=hidden;rotatable=0;points=[[0,0.5],[1,0.5]];portConstraint=eastwest;whiteSpace=wrap;html=1;" vertex="1" parent="nWtyFto2P3ngO1NLWRk3-262">
          <mxGeometry y="190" width="300" height="26" as="geometry" />
        </mxCell>
        <mxCell id="nWtyFto2P3ngO1NLWRk3-271" value="+ setHeight(height : int) : void" style="text;strokeColor=none;fillColor=none;align=left;verticalAlign=top;spacingLeft=4;spacingRight=4;overflow=hidden;rotatable=0;points=[[0,0.5],[1,0.5]];portConstraint=eastwest;whiteSpace=wrap;html=1;" vertex="1" parent="nWtyFto2P3ngO1NLWRk3-262">
          <mxGeometry y="216" width="300" height="26" as="geometry" />
        </mxCell>
        <mxCell id="nWtyFto2P3ngO1NLWRk3-272" value="+ getLongitute() : int" style="text;strokeColor=none;fillColor=none;align=left;verticalAlign=top;spacingLeft=4;spacingRight=4;overflow=hidden;rotatable=0;points=[[0,0.5],[1,0.5]];portConstraint=eastwest;whiteSpace=wrap;html=1;" vertex="1" parent="nWtyFto2P3ngO1NLWRk3-262">
          <mxGeometry y="242" width="300" height="26" as="geometry" />
        </mxCell>
        <mxCell id="nWtyFto2P3ngO1NLWRk3-273" value="+ getLatitude() : int" style="text;strokeColor=none;fillColor=none;align=left;verticalAlign=top;spacingLeft=4;spacingRight=4;overflow=hidden;rotatable=0;points=[[0,0.5],[1,0.5]];portConstraint=eastwest;whiteSpace=wrap;html=1;" vertex="1" parent="nWtyFto2P3ngO1NLWRk3-262">
          <mxGeometry y="268" width="300" height="26" as="geometry" />
        </mxCell>
        <mxCell id="nWtyFto2P3ngO1NLWRk3-274" value="+ getHeight() : int" style="text;strokeColor=none;fillColor=none;align=left;verticalAlign=top;spacingLeft=4;spacingRight=4;overflow=hidden;rotatable=0;points=[[0,0.5],[1,0.5]];portConstraint=eastwest;whiteSpace=wrap;html=1;" vertex="1" parent="nWtyFto2P3ngO1NLWRk3-262">
          <mxGeometry y="294" width="300" height="26" as="geometry" />
        </mxCell>
        <mxCell id="nWtyFto2P3ngO1NLWRk3-275" value="Flyable" style="swimlane;fontStyle=1;align=center;verticalAlign=top;childLayout=stackLayout;horizontal=1;startSize=26;horizontalStack=0;resizeParent=1;resizeParentMax=0;resizeLast=0;collapsible=1;marginBottom=0;whiteSpace=wrap;html=1;rounded=1;fillColor=#dae8fc;strokeColor=#6c8ebf;movable=1;resizable=1;rotatable=1;deletable=1;editable=1;locked=0;connectable=1;gradientColor=none;" vertex="1" parent="nWtyFto2P3ngO1NLWRk3-313">
          <mxGeometry y="330" width="260" height="112" as="geometry" />
        </mxCell>
        <mxCell id="nWtyFto2P3ngO1NLWRk3-276" value="#&amp;nbsp;weatherTower : WeatherTower" style="text;strokeColor=none;fillColor=none;align=left;verticalAlign=top;spacingLeft=4;spacingRight=4;overflow=hidden;rotatable=0;points=[[0,0.5],[1,0.5]];portConstraint=eastwest;whiteSpace=wrap;html=1;" vertex="1" parent="nWtyFto2P3ngO1NLWRk3-275">
          <mxGeometry y="26" width="260" height="26" as="geometry" />
        </mxCell>
        <mxCell id="nWtyFto2P3ngO1NLWRk3-284" value="" style="line;strokeWidth=1;fillColor=none;align=left;verticalAlign=middle;spacingTop=-1;spacingLeft=3;spacingRight=3;rotatable=0;labelPosition=right;points=[];portConstraint=eastwest;strokeColor=inherit;" vertex="1" parent="nWtyFto2P3ngO1NLWRk3-275">
          <mxGeometry y="52" width="260" height="8" as="geometry" />
        </mxCell>
        <mxCell id="nWtyFto2P3ngO1NLWRk3-292" value="+ abstract void updateConditions()" style="text;strokeColor=none;fillColor=none;align=left;verticalAlign=top;spacingLeft=4;spacingRight=4;overflow=hidden;rotatable=0;points=[[0,0.5],[1,0.5]];portConstraint=eastwest;whiteSpace=wrap;html=1;" vertex="1" parent="nWtyFto2P3ngO1NLWRk3-275">
          <mxGeometry y="60" width="260" height="26" as="geometry" />
        </mxCell>
        <mxCell id="nWtyFto2P3ngO1NLWRk3-293" value="+ registerTower(WeatherTower *p_tower)" style="text;strokeColor=none;fillColor=none;align=left;verticalAlign=top;spacingLeft=4;spacingRight=4;overflow=hidden;rotatable=0;points=[[0,0.5],[1,0.5]];portConstraint=eastwest;whiteSpace=wrap;html=1;" vertex="1" parent="nWtyFto2P3ngO1NLWRk3-275">
          <mxGeometry y="86" width="260" height="26" as="geometry" />
        </mxCell>
        <mxCell id="nWtyFto2P3ngO1NLWRk3-294" value="Aircraft" style="swimlane;fontStyle=1;align=center;verticalAlign=top;childLayout=stackLayout;horizontal=1;startSize=26;horizontalStack=0;resizeParent=1;resizeParentMax=0;resizeLast=0;collapsible=1;marginBottom=0;whiteSpace=wrap;html=1;rounded=1;fillColor=#d5e8d4;strokeColor=#82b366;movable=1;resizable=1;rotatable=1;deletable=1;editable=1;locked=0;connectable=1;" vertex="1" parent="nWtyFto2P3ngO1NLWRk3-313">
          <mxGeometry x="371.61" y="220" width="416.79" height="424" as="geometry" />
        </mxCell>
        <mxCell id="nWtyFto2P3ngO1NLWRk3-295" value="# long id" style="text;strokeColor=none;fillColor=none;align=left;verticalAlign=top;spacingLeft=4;spacingRight=4;overflow=hidden;rotatable=0;points=[[0,0.5],[1,0.5]];portConstraint=eastwest;whiteSpace=wrap;html=1;" vertex="1" parent="nWtyFto2P3ngO1NLWRk3-294">
          <mxGeometry y="26" width="416.79" height="26" as="geometry" />
        </mxCell>
        <mxCell id="nWtyFto2P3ngO1NLWRk3-296" value="# name : String" style="text;strokeColor=none;fillColor=none;align=left;verticalAlign=top;spacingLeft=4;spacingRight=4;overflow=hidden;rotatable=0;points=[[0,0.5],[1,0.5]];portConstraint=eastwest;whiteSpace=wrap;html=1;" vertex="1" parent="nWtyFto2P3ngO1NLWRk3-294">
          <mxGeometry y="52" width="416.79" height="26" as="geometry" />
        </mxCell>
        <mxCell id="nWtyFto2P3ngO1NLWRk3-297" value="# coordinate : Coordinate" style="text;strokeColor=none;fillColor=none;align=left;verticalAlign=top;spacingLeft=4;spacingRight=4;overflow=hidden;rotatable=0;points=[[0,0.5],[1,0.5]];portConstraint=eastwest;whiteSpace=wrap;html=1;" vertex="1" parent="nWtyFto2P3ngO1NLWRk3-294">
          <mxGeometry y="78" width="416.79" height="26" as="geometry" />
        </mxCell>
        <mxCell id="nWtyFto2P3ngO1NLWRk3-307" value="# type : String" style="text;strokeColor=none;fillColor=none;align=left;verticalAlign=top;spacingLeft=4;spacingRight=4;overflow=hidden;rotatable=0;points=[[0,0.5],[1,0.5]];portConstraint=eastwest;whiteSpace=wrap;html=1;" vertex="1" parent="nWtyFto2P3ngO1NLWRk3-294">
          <mxGeometry y="104" width="416.79" height="26" as="geometry" />
        </mxCell>
        <mxCell id="nWtyFto2P3ngO1NLWRk3-308" value="# messageBuilder : AircraftMessageBuilder" style="text;strokeColor=none;fillColor=none;align=left;verticalAlign=top;spacingLeft=4;spacingRight=4;overflow=hidden;rotatable=0;points=[[0,0.5],[1,0.5]];portConstraint=eastwest;whiteSpace=wrap;html=1;" vertex="1" parent="nWtyFto2P3ngO1NLWRk3-294">
          <mxGeometry y="130" width="416.79" height="26" as="geometry" />
        </mxCell>
        <mxCell id="nWtyFto2P3ngO1NLWRk3-309" value="# moveUpdateStrategy : AircraftMoveUpdateStrategyInterface" style="text;strokeColor=none;fillColor=none;align=left;verticalAlign=top;spacingLeft=4;spacingRight=4;overflow=hidden;rotatable=0;points=[[0,0.5],[1,0.5]];portConstraint=eastwest;whiteSpace=wrap;html=1;" vertex="1" parent="nWtyFto2P3ngO1NLWRk3-294">
          <mxGeometry y="156" width="416.79" height="26" as="geometry" />
        </mxCell>
        <mxCell id="nWtyFto2P3ngO1NLWRk3-310" value="-&amp;nbsp;&lt;u style=&quot;border-color: var(--border-color);&quot;&gt;idCounter : long&lt;/u&gt;" style="text;strokeColor=none;fillColor=none;align=left;verticalAlign=top;spacingLeft=4;spacingRight=4;overflow=hidden;rotatable=0;points=[[0,0.5],[1,0.5]];portConstraint=eastwest;whiteSpace=wrap;html=1;" vertex="1" parent="nWtyFto2P3ngO1NLWRk3-294">
          <mxGeometry y="182" width="416.79" height="26" as="geometry" />
        </mxCell>
        <mxCell id="nWtyFto2P3ngO1NLWRk3-299" value="" style="line;strokeWidth=1;fillColor=none;align=left;verticalAlign=middle;spacingTop=-1;spacingLeft=3;spacingRight=3;rotatable=0;labelPosition=right;points=[];portConstraint=eastwest;strokeColor=inherit;" vertex="1" parent="nWtyFto2P3ngO1NLWRk3-294">
          <mxGeometry y="208" width="416.79" height="8" as="geometry" />
        </mxCell>
        <mxCell id="nWtyFto2P3ngO1NLWRk3-300" value="# Aircraft(name : String, coordinates : Coordinates)" style="text;strokeColor=none;fillColor=none;align=left;verticalAlign=top;spacingLeft=4;spacingRight=4;overflow=hidden;rotatable=0;points=[[0,0.5],[1,0.5]];portConstraint=eastwest;whiteSpace=wrap;html=1;" vertex="1" parent="nWtyFto2P3ngO1NLWRk3-294">
          <mxGeometry y="216" width="416.79" height="26" as="geometry" />
        </mxCell>
        <mxCell id="nWtyFto2P3ngO1NLWRk3-301" value="- nextId() : long" style="text;strokeColor=none;fillColor=none;align=left;verticalAlign=top;spacingLeft=4;spacingRight=4;overflow=hidden;rotatable=0;points=[[0,0.5],[1,0.5]];portConstraint=eastwest;whiteSpace=wrap;html=1;" vertex="1" parent="nWtyFto2P3ngO1NLWRk3-294">
          <mxGeometry y="242" width="416.79" height="26" as="geometry" />
        </mxCell>
        <mxCell id="nWtyFto2P3ngO1NLWRk3-302" value="+ getId() : long" style="text;strokeColor=none;fillColor=none;align=left;verticalAlign=top;spacingLeft=4;spacingRight=4;overflow=hidden;rotatable=0;points=[[0,0.5],[1,0.5]];portConstraint=eastwest;whiteSpace=wrap;html=1;" vertex="1" parent="nWtyFto2P3ngO1NLWRk3-294">
          <mxGeometry y="268" width="416.79" height="26" as="geometry" />
        </mxCell>
        <mxCell id="nWtyFto2P3ngO1NLWRk3-303" value="+ getName() : String" style="text;strokeColor=none;fillColor=none;align=left;verticalAlign=top;spacingLeft=4;spacingRight=4;overflow=hidden;rotatable=0;points=[[0,0.5],[1,0.5]];portConstraint=eastwest;whiteSpace=wrap;html=1;" vertex="1" parent="nWtyFto2P3ngO1NLWRk3-294">
          <mxGeometry y="294" width="416.79" height="26" as="geometry" />
        </mxCell>
        <mxCell id="nWtyFto2P3ngO1NLWRk3-304" value="+ getType() : String" style="text;strokeColor=none;fillColor=none;align=left;verticalAlign=top;spacingLeft=4;spacingRight=4;overflow=hidden;rotatable=0;points=[[0,0.5],[1,0.5]];portConstraint=eastwest;whiteSpace=wrap;html=1;" vertex="1" parent="nWtyFto2P3ngO1NLWRk3-294">
          <mxGeometry y="320" width="416.79" height="26" as="geometry" />
        </mxCell>
        <mxCell id="nWtyFto2P3ngO1NLWRk3-305" value="+ getCoordinates() : Coordinates" style="text;strokeColor=none;fillColor=none;align=left;verticalAlign=top;spacingLeft=4;spacingRight=4;overflow=hidden;rotatable=0;points=[[0,0.5],[1,0.5]];portConstraint=eastwest;whiteSpace=wrap;html=1;" vertex="1" parent="nWtyFto2P3ngO1NLWRk3-294">
          <mxGeometry y="346" width="416.79" height="26" as="geometry" />
        </mxCell>
        <mxCell id="nWtyFto2P3ngO1NLWRk3-306" value="+ setCoordinates(Coordinates) : void" style="text;strokeColor=none;fillColor=none;align=left;verticalAlign=top;spacingLeft=4;spacingRight=4;overflow=hidden;rotatable=0;points=[[0,0.5],[1,0.5]];portConstraint=eastwest;whiteSpace=wrap;html=1;" vertex="1" parent="nWtyFto2P3ngO1NLWRk3-294">
          <mxGeometry y="372" width="416.79" height="26" as="geometry" />
        </mxCell>
        <mxCell id="nWtyFto2P3ngO1NLWRk3-311" value="+ speak(followTower : WeatherTower) : void" style="text;strokeColor=none;fillColor=none;align=left;verticalAlign=top;spacingLeft=4;spacingRight=4;overflow=hidden;rotatable=0;points=[[0,0.5],[1,0.5]];portConstraint=eastwest;whiteSpace=wrap;html=1;" vertex="1" parent="nWtyFto2P3ngO1NLWRk3-294">
          <mxGeometry y="398" width="416.79" height="26" as="geometry" />
        </mxCell>
        <mxCell id="nWtyFto2P3ngO1NLWRk3-181" style="edgeStyle=orthogonalEdgeStyle;rounded=0;orthogonalLoop=1;jettySize=auto;html=1;endArrow=block;endFill=0;" edge="1" parent="nWtyFto2P3ngO1NLWRk3-313" source="nWtyFto2P3ngO1NLWRk3-183" target="nWtyFto2P3ngO1NLWRk3-294">
          <mxGeometry relative="1" as="geometry">
            <Array as="points">
              <mxPoint x="865" y="780" />
              <mxPoint x="605" y="780" />
            </Array>
            <mxPoint x="605" y="670" as="targetPoint" />
          </mxGeometry>
        </mxCell>
        <mxCell id="nWtyFto2P3ngO1NLWRk3-216" style="edgeStyle=orthogonalEdgeStyle;rounded=0;orthogonalLoop=1;jettySize=auto;html=1;endArrow=diamondThin;endFill=1;exitX=0;exitY=0.5;exitDx=0;exitDy=0;" edge="1" parent="nWtyFto2P3ngO1NLWRk3-313" source="nWtyFto2P3ngO1NLWRk3-263" target="nWtyFto2P3ngO1NLWRk3-294">
          <mxGeometry relative="1" as="geometry">
            <Array as="points" />
            <mxPoint x="790" y="271" as="targetPoint" />
          </mxGeometry>
        </mxCell>
        <mxCell id="nWtyFto2P3ngO1NLWRk3-312" style="edgeStyle=orthogonalEdgeStyle;rounded=0;orthogonalLoop=1;jettySize=auto;html=1;endArrow=block;endFill=0;" edge="1" parent="nWtyFto2P3ngO1NLWRk3-313" source="nWtyFto2P3ngO1NLWRk3-275" target="nWtyFto2P3ngO1NLWRk3-294">
          <mxGeometry relative="1" as="geometry" />
        </mxCell>
      </root>
    </mxGraphModel>
  </diagram>
</mxfile>
